<svg width="75" height="46" viewBox="0 0 75 46" fill="none" xmlns="http://www.w3.org/2000/svg">
<g clip-path="url(#clip0_213_155)">
<path d="M12.98 8.12006C8.01996 8.72006 6.10996 14.8601 9.48996 17.8001C12.37 20.3101 20.16 19.5601 24.01 19.4801C42.54 19.0601 42.97 45.0201 25.49 45.7201C25.1566 45.7334 24.99 45.5734 24.99 45.2401L24.98 38.7201C24.98 38.3067 25.1866 38.0801 25.6 38.0401C30.86 37.4901 32.58 30.9901 28.59 28.1301C27.5166 27.3567 25.8566 26.9667 23.61 26.9601C15.97 26.9401 5.99996 28.5101 1.78996 20.0101C-2.60004 11.1301 3.02996 0.920055 13.02 0.550055C13.3466 0.536722 13.51 0.690055 13.51 1.01006V7.52006C13.511 7.66777 13.4575 7.81066 13.3597 7.92137C13.2619 8.03208 13.1267 8.10283 12.98 8.12006Z" fill="#121212"/>
<path d="M52.96 28.2201L66.44 0.680055C66.4681 0.62495 66.5111 0.578854 66.5641 0.547027C66.6172 0.515201 66.6781 0.498924 66.74 0.500055H74.25C74.3056 0.499858 74.3604 0.513731 74.4092 0.540383C74.4581 0.567036 74.4994 0.605604 74.5293 0.652501C74.5592 0.699399 74.5768 0.753103 74.5804 0.808623C74.584 0.864142 74.5736 0.919674 74.55 0.970055L52.97 45.1901C52.9436 45.2475 52.9014 45.2962 52.8482 45.3303C52.795 45.3644 52.7331 45.3826 52.67 45.3826C52.6068 45.3826 52.5449 45.3644 52.4917 45.3303C52.4385 45.2962 52.3963 45.2475 52.37 45.1901L38.81 17.5601C38.7863 17.5136 38.7739 17.4622 38.7739 17.4101C38.7739 17.3579 38.7863 17.3065 38.81 17.2601L42.61 9.53006C42.6363 9.47261 42.6786 9.42393 42.7317 9.3898C42.7849 9.35567 42.8468 9.33753 42.91 9.33753C42.9732 9.33753 43.035 9.35567 43.0882 9.3898C43.1414 9.42393 43.1836 9.47261 43.21 9.53006L52.36 28.2201C52.3863 28.2775 52.4286 28.3262 52.4817 28.3603C52.5349 28.3944 52.5968 28.4126 52.66 28.4126C52.7232 28.4126 52.785 28.3944 52.8382 28.3603C52.8914 28.3262 52.9336 28.2775 52.96 28.2201Z" fill="#121212"/>
</g>
<defs>
<clipPath id="clip0_213_155">
<rect width="75" height="46" fill="white"/>
</clipPath>
</defs>
</svg>
