<svg width="686" height="80" viewBox="0 0 686 80" fill="none" xmlns="http://www.w3.org/2000/svg">
<path d="M26.25 55.96C29.28 55 31.09 54.01 31.41 50.49C31.78 46.28 28.09 44.51 24.22 44.5C20.02 44.49 14.49 44.98 10.99 43.87C-2.36996 39.62 -0.00995731 19.04 14.38 17.69C14.7534 17.6567 14.94 17.8267 14.94 18.2V24.77C14.94 25.1767 14.74 25.4067 14.34 25.46C9.10004 26.21 7.71004 33.08 11.63 35.77C12.7634 36.5433 14.5834 36.9167 17.09 36.89C21.85 36.83 27.69 36.24 31.74 38.3C43.04 44.05 39.78 63.3 26.32 63.49C25.9867 63.4967 25.82 63.3333 25.82 63L25.84 56.51C25.84 56.23 25.9767 56.0467 26.25 55.96Z" fill="white"/>
<path d="M74.38 25.73V63.2C74.38 63.2822 74.3474 63.3611 74.2892 63.4192C74.2311 63.4774 74.1523 63.51 74.07 63.51H67.31C67.2278 63.51 67.149 63.4774 67.0908 63.4192C67.0327 63.3611 67 63.2822 67 63.2L67.01 18.01C67.01 17.9278 67.0427 17.8489 67.1008 17.7908C67.159 17.7327 67.2378 17.7 67.32 17.7H88.61C88.6923 17.7 88.7711 17.7327 88.8292 17.7908C88.8874 17.8489 88.92 17.9278 88.92 18.01V25.11C88.92 25.1922 88.8874 25.2711 88.8292 25.3292C88.7711 25.3874 88.6923 25.42 88.61 25.42H74.69C74.6078 25.42 74.529 25.4527 74.4708 25.5108C74.4127 25.5689 74.38 25.6478 74.38 25.73Z" fill="white"/>
<path d="M170.66 47.62L179.05 62.97C179.243 63.33 179.137 63.51 178.73 63.51H171.5C171.133 63.51 170.863 63.3533 170.69 63.04L158.56 41.16C158.333 40.7533 158.457 40.5533 158.93 40.56C161.43 40.61 164.37 40.95 166.5 40.41C172.6 38.87 174.02 30.12 169.02 26.82C165.21 24.3 155.05 25.4 150.34 25.43C150.192 25.4326 150.046 25.3949 149.917 25.3209C149.788 25.2469 149.682 25.1395 149.61 25.01L145.83 18.27C145.623 17.91 145.727 17.7267 146.14 17.72C151.947 17.6467 157.743 17.65 163.53 17.73C166.643 17.77 169.137 18.24 171.01 19.14C182.48 24.64 181.93 40.72 170.88 46.89C170.567 47.0633 170.493 47.3067 170.66 47.62Z" fill="white"/>
<path d="M215.42 25.76V63.17C215.42 63.2602 215.384 63.3467 215.32 63.4104C215.257 63.4742 215.17 63.51 215.08 63.51H208.47C208.38 63.51 208.293 63.4742 208.23 63.4104C208.166 63.3467 208.13 63.2602 208.13 63.17L208.12 18.04C208.12 17.9498 208.156 17.8634 208.22 17.7996C208.283 17.7358 208.37 17.7 208.46 17.7H229.67C229.76 17.7 229.847 17.7358 229.91 17.7996C229.974 17.8634 230.01 17.9498 230.01 18.04L230.02 25.07C230.02 25.1602 229.984 25.2467 229.92 25.3104C229.857 25.3742 229.77 25.41 229.68 25.41L215.76 25.42C215.67 25.42 215.583 25.4558 215.52 25.5196C215.456 25.5834 215.42 25.6698 215.42 25.76Z" fill="white"/>
<path d="M313.32 46.6L309.57 54.39C309.543 54.4497 309.5 54.5004 309.445 54.5359C309.39 54.5715 309.326 54.5904 309.26 54.5904C309.195 54.5904 309.13 54.5715 309.075 54.5359C309.02 54.5004 308.977 54.4497 308.95 54.39L291.61 18.17C291.584 18.1178 291.573 18.0599 291.576 18.0018C291.579 17.9437 291.597 17.8874 291.628 17.8382C291.659 17.789 291.702 17.7487 291.753 17.721C291.804 17.6933 291.862 17.6792 291.92 17.68H299.38C299.443 17.681 299.504 17.6992 299.557 17.7327C299.61 17.7663 299.652 17.8138 299.68 17.87L313.32 46.3C313.343 46.3467 313.355 46.398 313.355 46.45C313.355 46.502 313.343 46.5533 313.32 46.6Z" fill="white"/>
<path d="M341.21 45.79L354.57 17.87C354.598 17.8138 354.64 17.7663 354.693 17.7327C354.746 17.6992 354.807 17.681 354.87 17.68L362.31 17.7C362.368 17.6992 362.426 17.7133 362.477 17.741C362.528 17.7687 362.571 17.809 362.602 17.8582C362.633 17.9074 362.651 17.9637 362.654 18.0218C362.658 18.0799 362.646 18.1378 362.62 18.19L341.21 62.97C341.183 63.0297 341.14 63.0804 341.085 63.1159C341.03 63.1515 340.966 63.1704 340.9 63.1704C340.835 63.1704 340.77 63.1515 340.715 63.1159C340.66 63.0804 340.617 63.0297 340.59 62.97L327.14 34.97C327.117 34.9233 327.105 34.872 327.105 34.82C327.105 34.768 327.117 34.7167 327.14 34.67L330.9 26.89C330.928 26.8307 330.972 26.7808 331.028 26.7461C331.083 26.7114 331.148 26.6935 331.213 26.6946C331.279 26.6956 331.343 26.7156 331.397 26.752C331.451 26.7885 331.494 26.8399 331.52 26.9L340.59 45.79C340.617 45.8497 340.66 45.9004 340.715 45.9359C340.77 45.9715 340.835 45.9904 340.9 45.9904C340.966 45.9904 341.03 45.9715 341.085 45.9359C341.14 45.9004 341.183 45.8497 341.21 45.79Z" fill="white"/>
<path d="M447.58 44.48V17.99C447.58 17.9104 447.612 17.8341 447.668 17.7779C447.724 17.7216 447.8 17.69 447.88 17.69H454.62C454.7 17.69 454.776 17.7216 454.832 17.7779C454.888 17.8341 454.92 17.9104 454.92 17.99L454.91 62.94C454.911 62.9996 454.895 63.0581 454.862 63.1082C454.83 63.1583 454.784 63.1977 454.729 63.2213C454.674 63.2449 454.614 63.2517 454.555 63.2407C454.497 63.2298 454.443 63.2017 454.4 63.16L418.56 29.48C418.531 29.4514 418.508 29.4171 418.492 29.3793C418.477 29.3415 418.469 29.3009 418.47 29.26V18.45C418.471 18.3913 418.489 18.3341 418.522 18.2855C418.555 18.237 418.601 18.1992 418.656 18.1768C418.71 18.1545 418.77 18.1485 418.827 18.1598C418.885 18.171 418.938 18.1989 418.98 18.24L447.07 44.69C447.112 44.7311 447.165 44.759 447.223 44.7703C447.28 44.7815 447.34 44.7756 447.394 44.7532C447.449 44.7308 447.495 44.693 447.528 44.6445C447.561 44.5959 447.579 44.5387 447.58 44.48Z" fill="white"/>
<path d="M513.24 44.47V17.97C513.24 17.8904 513.272 17.8141 513.328 17.7579C513.384 17.7016 513.46 17.67 513.54 17.67L520.21 17.71C520.29 17.71 520.366 17.7416 520.422 17.7979C520.478 17.8541 520.51 17.9304 520.51 18.01V62.88C520.509 62.9387 520.491 62.9959 520.458 63.0445C520.425 63.093 520.379 63.1308 520.324 63.1532C520.27 63.1756 520.21 63.1815 520.153 63.1703C520.095 63.159 520.042 63.1311 520 63.09L484.2 29.44C484.171 29.4114 484.148 29.3771 484.132 29.3393C484.117 29.3015 484.109 29.2609 484.11 29.22L484.06 18.39C484.059 18.3304 484.075 18.2719 484.108 18.2218C484.14 18.1717 484.186 18.1323 484.241 18.1087C484.296 18.0851 484.356 18.0784 484.415 18.0893C484.473 18.1002 484.527 18.1283 484.57 18.17L512.73 44.68C512.772 44.7211 512.825 44.749 512.883 44.7603C512.94 44.7715 513 44.7656 513.054 44.7432C513.109 44.7208 513.155 44.683 513.188 44.6345C513.221 44.5859 513.239 44.5287 513.24 44.47Z" fill="white"/>
<path d="M607.47 44.41V18.05C607.47 18.0041 607.479 17.9585 607.497 17.9161C607.514 17.8736 607.54 17.835 607.573 17.8025C607.605 17.77 607.644 17.7442 607.686 17.7267C607.729 17.7091 607.774 17.7 607.82 17.7L614.37 17.69C614.463 17.69 614.552 17.7269 614.618 17.7925C614.683 17.8582 614.72 17.9472 614.72 18.04V62.78C614.721 62.8488 614.702 62.9164 614.665 62.9743C614.628 63.0322 614.574 63.0778 614.511 63.1056C614.448 63.1333 614.379 63.1419 614.311 63.1302C614.243 63.1186 614.18 63.0872 614.13 63.04L578.35 29.42C578.316 29.3878 578.289 29.3491 578.27 29.3062C578.251 29.2632 578.241 29.2169 578.24 29.17V18.51C578.241 18.4421 578.262 18.3759 578.3 18.3195C578.337 18.2631 578.391 18.219 578.453 18.1925C578.516 18.166 578.585 18.1582 578.652 18.1702C578.719 18.1822 578.781 18.2134 578.83 18.26L606.88 44.66C606.93 44.7066 606.991 44.7378 607.058 44.7498C607.125 44.7618 607.194 44.7541 607.257 44.7276C607.319 44.701 607.373 44.6569 607.411 44.6005C607.448 44.5441 607.469 44.4779 607.47 44.41Z" fill="white"/>
<path d="M123.39 35.45L110.01 63.34C109.984 63.3943 109.942 63.4401 109.891 63.4719C109.84 63.5038 109.78 63.5204 109.72 63.52L102.28 63.51C102.226 63.5104 102.172 63.4969 102.124 63.4708C102.076 63.4446 102.036 63.4067 102.007 63.3607C101.978 63.3146 101.961 63.2619 101.958 63.2076C101.955 63.1532 101.966 63.099 101.99 63.05L123.39 18.29C123.416 18.2348 123.457 18.1881 123.508 18.1554C123.559 18.1227 123.619 18.1053 123.68 18.1053C123.741 18.1053 123.801 18.1227 123.852 18.1554C123.903 18.1881 123.944 18.2348 123.97 18.29L138.04 47.8C138.064 47.849 138.075 47.9032 138.072 47.9576C138.069 48.0119 138.052 48.0646 138.023 48.1107C137.994 48.1567 137.954 48.1946 137.906 48.2208C137.858 48.2469 137.804 48.2604 137.75 48.26H130.25C130.19 48.2604 130.13 48.2438 130.079 48.2119C130.028 48.1801 129.986 48.1343 129.96 48.08L123.97 35.46C123.945 35.4044 123.905 35.3569 123.854 35.3233C123.803 35.2897 123.744 35.2713 123.683 35.2702C123.622 35.2692 123.562 35.2855 123.51 35.3174C123.458 35.3492 123.417 35.3952 123.39 35.45Z" fill="white"/>
<path d="M556.64 56.29L550.16 63.17C549.88 63.4633 549.74 63.4067 549.74 63V18.26C549.74 17.8733 549.873 17.82 550.14 18.1L556.66 24.87C556.9 25.1167 557.02 25.4133 557.02 25.76V55.35C557.02 55.71 556.893 56.0233 556.64 56.29Z" fill="white"/>
<path d="M655.5 51.54C661.52 57.59 670.48 57.3 676.53 51.12C676.77 50.8733 677.053 50.8033 677.38 50.91L683.66 53.06C684.047 53.1933 684.12 53.42 683.88 53.74C675.56 64.93 661.32 67.18 651.12 57.55C642.75 49.65 641.47 36.41 648.19 27.06C656.24 15.85 671.1 14.43 681.04 24.1C681.293 24.34 681.3 24.5833 681.06 24.83L676.63 29.4C676.37 29.6667 676.1 29.68 675.82 29.44C671.073 25.3933 666.133 24.35 661 26.31C650.77 30.22 647.81 43.82 655.5 51.54Z" fill="white"/>
<path d="M397.21 25.42V55.78C397.208 55.8589 397.176 55.934 397.12 55.99L390.5 62.92C390.457 62.9631 390.403 62.9927 390.343 63.0052C390.284 63.0176 390.222 63.0123 390.166 62.9899C390.109 62.9676 390.061 62.9291 390.026 62.8793C389.991 62.8296 389.972 62.7707 389.97 62.71V18.56C389.97 18.4985 389.988 18.4382 390.022 18.387C390.056 18.3357 390.104 18.2957 390.161 18.2721C390.218 18.2485 390.281 18.2424 390.341 18.2545C390.401 18.2666 390.457 18.2963 390.5 18.34L397.12 25.2C397.149 25.229 397.172 25.2633 397.187 25.301C397.202 25.3388 397.21 25.3792 397.21 25.42Z" fill="white"/>
<path d="M676.63 44.5H666.17C666.077 44.5 665.988 44.4631 665.923 44.3975C665.857 44.3319 665.82 44.2428 665.82 44.15L665.85 37.24C665.85 37.1472 665.887 37.0582 665.953 36.9925C666.018 36.9269 666.107 36.89 666.2 36.89L683.36 36.88C683.428 36.8809 683.494 36.9016 683.551 36.9395C683.607 36.9774 683.651 37.0309 683.678 37.0934C683.704 37.156 683.712 37.2249 683.7 37.2918C683.688 37.3586 683.657 37.4206 683.61 37.47L676.88 44.39C676.848 44.4242 676.809 44.4515 676.766 44.4704C676.723 44.4893 676.677 44.4994 676.63 44.5Z" fill="white"/>
<path d="M134.36 55.99L141.77 55.97C141.833 55.9698 141.895 55.9876 141.948 56.0212C142.001 56.0549 142.043 56.103 142.07 56.16L145.34 63.05C145.364 63.1004 145.374 63.1559 145.37 63.2114C145.367 63.267 145.349 63.3207 145.319 63.3676C145.289 63.4145 145.248 63.453 145.199 63.4797C145.15 63.5063 145.096 63.5202 145.04 63.52L137.58 63.5C137.517 63.5002 137.455 63.4825 137.402 63.4488C137.349 63.4151 137.307 63.367 137.28 63.31L134.06 56.46C134.036 56.4096 134.026 56.3541 134.03 56.2986C134.033 56.2431 134.051 56.1894 134.081 56.1425C134.111 56.0956 134.152 56.057 134.201 56.0303C134.25 56.0037 134.304 55.9898 134.36 55.99Z" fill="white"/>
</svg>
