<svg width="0" height="0" class="hidden">
  <symbol fill="none" xmlns="http://www.w3.org/2000/svg" viewBox="0 0 24 24" id="menu">
    <path d="M3 5.67C3 5.29997 3.29997 5 3.67 5H20.33C20.7 5 21 5.29997 21 5.67V6.33C21 6.70003 20.7 7 20.33 7H3.67C3.29997 7 3 6.70003 3 6.33V5.67ZM9 11.67C9 11.3 9.29997 11 9.67 11H20.33C20.7 11 21 11.3 21 11.67V12.33C21 12.7 20.7 13 20.33 13H9.67C9.29997 13 9 12.7 9 12.33V11.67ZM3 17.67C3 17.3 3.29997 17 3.67 17H20.33C20.7 17 21 17.3 21 17.67V18.33C21 18.7 20.7 19 20.33 19H3.67C3.29997 19 3 18.7 3 18.33V17.67Z" fill="currentColor"></path>
  </symbol>
  <symbol fill="none" xmlns="http://www.w3.org/2000/svg" viewBox="0 0 24 24" id="options">
    <path fill-rule="evenodd" clip-rule="evenodd" d="M2.25 6C2.25 5.58579 2.58579 5.25 3 5.25H14.25C14.6642 5.25 15 5.58579 15 6C15 6.41421 14.6642 6.75 14.25 6.75H3C2.58579 6.75 2.25 6.41421 2.25 6ZM16.5 6C16.5 5.58579 16.8358 5.25 17.25 5.25H21C21.4142 5.25 21.75 5.58579 21.75 6C21.75 6.41421 21.4142 6.75 21 6.75H17.25C16.8358 6.75 16.5 6.41421 16.5 6ZM2.25 12C2.25 11.5858 2.58579 11.25 3 11.25H6.75C7.16421 11.25 7.5 11.5858 7.5 12C7.5 12.4142 7.16421 12.75 6.75 12.75H3C2.58579 12.75 2.25 12.4142 2.25 12ZM9 12C9 11.5858 9.33579 11.25 9.75 11.25H21C21.4142 11.25 21.75 11.5858 21.75 12C21.75 12.4142 21.4142 12.75 21 12.75H9.75C9.33579 12.75 9 12.4142 9 12ZM2.25 18C2.25 17.5858 2.58579 17.25 3 17.25H14.25C14.6642 17.25 15 17.5858 15 18C15 18.4142 14.6642 18.75 14.25 18.75H3C2.58579 18.75 2.25 18.4142 2.25 18ZM16.5 18C16.5 17.5858 16.8358 17.25 17.25 17.25H21C21.4142 17.25 21.75 17.5858 21.75 18C21.75 18.4142 21.4142 18.75 21 18.75H17.25C16.8358 18.75 16.5 18.4142 16.5 18Z" fill="currentColor"></path>
    <path fill-rule="evenodd" clip-rule="evenodd" d="M15.75 5.25C15.3358 5.25 15 5.58579 15 6C15 6.41421 15.3358 6.75 15.75 6.75C16.1642 6.75 16.5 6.41421 16.5 6C16.5 5.58579 16.1642 5.25 15.75 5.25ZM13.5 6C13.5 4.75736 14.5074 3.75 15.75 3.75C16.9926 3.75 18 4.75736 18 6C18 7.24264 16.9926 8.25 15.75 8.25C14.5074 8.25 13.5 7.24264 13.5 6Z" fill="currentColor"></path>
    <path fill-rule="evenodd" clip-rule="evenodd" d="M8.25 11.25C7.83579 11.25 7.5 11.5858 7.5 12C7.5 12.4142 7.83579 12.75 8.25 12.75C8.66421 12.75 9 12.4142 9 12C9 11.5858 8.66421 11.25 8.25 11.25ZM6 12C6 10.7574 7.00736 9.75 8.25 9.75C9.49264 9.75 10.5 10.7574 10.5 12C10.5 13.2426 9.49264 14.25 8.25 14.25C7.00736 14.25 6 13.2426 6 12Z" fill="currentColor"></path>
    <path fill-rule="evenodd" clip-rule="evenodd" d="M15.75 17.25C15.3358 17.25 15 17.5858 15 18C15 18.4142 15.3358 18.75 15.75 18.75C16.1642 18.75 16.5 18.4142 16.5 18C16.5 17.5858 16.1642 17.25 15.75 17.25ZM13.5 18C13.5 16.7574 14.5074 15.75 15.75 15.75C16.9926 15.75 18 16.7574 18 18C18 19.2426 16.9926 20.25 15.75 20.25C14.5074 20.25 13.5 19.2426 13.5 18Z" fill="currentColor"></path>
  </symbol>
  <symbol fill="none" xmlns="http://www.w3.org/2000/svg" viewBox="0 0 24 24" id="play">
    <path fill-rule="evenodd" clip-rule="evenodd" d="M0 12C0 5.37481 5.37481 0 12 0C18.6252 0 24 5.37481 24 12C24 18.6252 18.6252 24 12 24C5.37481 24 0 18.6252 0 12ZM12 1.84615C6.39442 1.84615 1.84615 6.39442 1.84615 12C1.84615 17.6056 6.39442 22.1538 12 22.1538C17.6056 22.1538 22.1538 17.6056 22.1538 12C22.1538 6.39442 17.6056 1.84615 12 1.84615Z" fill="currentColor"></path>
    <path d="M9.71132 16.5254L16.3142 12.5366C16.4062 12.4805 16.4823 12.4017 16.5351 12.3077C16.5879 12.2138 16.6156 12.1078 16.6156 12C16.6156 11.8923 16.5879 11.7863 16.5351 11.6923C16.4823 11.5984 16.4062 11.5196 16.3142 11.4635L9.71132 7.47465C9.61668 7.41795 9.50866 7.38744 9.39833 7.38627C9.28801 7.38509 9.17936 7.41328 9.08353 7.46795C8.9877 7.52262 8.90813 7.6018 8.853 7.69736C8.79787 7.79293 8.76915 7.90144 8.76979 8.01176V15.9883C8.76915 16.0986 8.79787 16.2071 8.853 16.3027C8.90813 16.3983 8.9877 16.4774 9.08353 16.5321C9.17936 16.5868 9.28801 16.615 9.39833 16.6138C9.50866 16.6126 9.61668 16.5821 9.71132 16.5254Z" fill="currentColor"></path>
  </symbol>
  <symbol fill="none" xmlns="http://www.w3.org/2000/svg" viewBox="0 0 24 24" id="user">
    <path d="M17.4198 5.92002C17.4198 7.35219 16.8509 8.7257 15.8382 9.7384C14.8255 10.7511 13.452 11.32 12.0198 11.32C10.5876 11.32 9.2141 10.7511 8.20141 9.7384C7.18871 8.7257 6.61979 7.35219 6.61979 5.92002C6.61979 4.48785 7.18871 3.11434 8.20141 2.10164C9.2141 1.08895 10.5876 0.52002 12.0198 0.52002C13.452 0.52002 14.8255 1.08895 15.8382 2.10164C16.8509 3.11434 17.4198 4.48785 17.4198 5.92002ZM15.5098 5.93002C15.5098 4.99911 15.14 4.10633 14.4817 3.44807C13.8235 2.78982 12.9307 2.42002 11.9998 2.42002C11.0689 2.42002 10.1761 2.78982 9.51784 3.44807C8.85959 4.10633 8.48979 4.99911 8.48979 5.93002C8.48979 6.86093 8.85959 7.75371 9.51784 8.41196C10.1761 9.07022 11.0689 9.44002 11.9998 9.44002C12.9307 9.44002 13.8235 9.07022 14.4817 8.41196C15.14 7.75371 15.5098 6.86093 15.5098 5.93002Z" fill="currentColor"></path>
    <path d="M1.31979 23.51C1.21604 23.51 1.11331 23.4896 1.01747 23.4499C0.921618 23.4102 0.834529 23.352 0.761171 23.2786C0.687813 23.2053 0.629622 23.1182 0.58992 23.0223C0.550219 22.9265 0.529785 22.8238 0.529785 22.72V22.23C0.529785 19.4877 1.54121 16.8577 3.34156 14.9185C5.14191 12.9794 7.58371 11.89 10.1298 11.89H13.8498C15.1105 11.89 16.3588 12.1575 17.5235 12.6771C18.6883 13.1967 19.7466 13.9584 20.638 14.9185C21.5295 15.8787 22.2366 17.0186 22.719 18.2731C23.2015 19.5276 23.4498 20.8722 23.4498 22.23V22.72C23.4498 22.9295 23.3666 23.1305 23.2184 23.2786C23.0702 23.4268 22.8693 23.51 22.6598 23.51H1.31979ZM2.71979 21.66L21.2798 21.7C21.3143 21.7 21.3473 21.6863 21.3717 21.6619C21.3961 21.6376 21.4098 21.6045 21.4098 21.57V21.48C21.4124 20.4925 21.2195 19.5141 20.842 18.6007C20.4645 17.6873 19.9098 16.8569 19.2097 16.1567C18.5095 15.4566 17.6776 14.9004 16.7613 14.5201C15.8451 14.1398 14.8626 13.9426 13.8698 13.94H10.1698C9.17699 13.9374 8.19339 14.1293 7.27516 14.5048C6.35693 14.8803 5.52205 15.432 4.81818 16.1284C4.11431 16.8249 3.55524 17.6524 3.17289 18.5637C2.79054 19.4751 2.5924 20.4525 2.58979 21.44V21.53C2.58979 21.5471 2.59315 21.564 2.59968 21.5798C2.60621 21.5955 2.61579 21.6099 2.62786 21.6219C2.63993 21.634 2.65426 21.6436 2.67004 21.6501C2.68581 21.6567 2.70271 21.66 2.71979 21.66Z" fill="currentColor"></path>
  </symbol>
  <symbol fill="none" xmlns="http://www.w3.org/2000/svg" viewBox="0 0 25 25" id="share">
    <path fill-rule="evenodd" clip-rule="evenodd" d="M12.5433 3.93549C12.8193 3.8174 13.1391 3.87524 13.3562 4.0825L21.6062 11.9575C21.7545 12.099 21.8384 12.2951 21.8384 12.5C21.8384 12.705 21.7545 12.901 21.6062 13.0425L13.3562 20.9175C13.1391 21.1248 12.8193 21.1826 12.5433 21.0645C12.2674 20.9465 12.0884 20.6752 12.0884 20.375V16.6359C9.84521 16.703 8.31373 17.0781 7.11619 17.6972C5.78975 18.3829 4.79664 19.4062 3.67947 20.8367C3.48242 21.089 3.14696 21.1884 2.84426 21.0842C2.54157 20.98 2.33838 20.6951 2.33838 20.375C2.33838 17.5218 2.80732 14.5279 4.3843 12.2298C5.89783 10.0242 8.359 8.56338 12.0884 8.39195V4.62502C12.0884 4.32484 12.2674 4.05358 12.5433 3.93549ZM13.5884 6.37776V9.12502C13.5884 9.53923 13.2526 9.87502 12.8384 9.87502C9.0958 9.87502 6.90953 11.201 5.62109 13.0785C4.64717 14.4978 4.14154 16.2964 3.94217 18.2369C4.67352 17.4932 5.46928 16.86 6.42732 16.3647C8.0421 15.5299 10.0415 15.125 12.8384 15.125C13.2526 15.125 13.5884 15.4608 13.5884 15.875V18.6223L20.0022 12.5L13.5884 6.37776Z" fill="currentColor"></path>
  </symbol>
  <symbol fill="none" xmlns="http://www.w3.org/2000/svg" viewBox="0 0 24 24" id="wifi">
    <path fill-rule="evenodd" clip-rule="evenodd" d="M2.51392 7.97665C5.12479 5.64754 8.50129 4.36035 12.0001 4.36035C15.4988 4.36035 18.8753 5.64754 21.4862 7.97665C21.7953 8.25239 21.8223 8.7265 21.5466 9.03559C21.2709 9.34469 20.7968 9.37173 20.4877 9.09599C18.1516 7.01204 15.1305 5.86035 12.0001 5.86035C8.86958 5.86035 5.84851 7.01204 3.51246 9.09599C3.20337 9.37173 2.72926 9.34469 2.45352 9.03559C2.17778 8.7265 2.20482 8.25239 2.51392 7.97665ZM5.04438 11.1493C6.93092 9.38523 9.41725 8.40388 12.0001 8.40388C14.5829 8.40388 17.0692 9.38523 18.9557 11.1493C19.2583 11.4322 19.2742 11.9068 18.9913 12.2094C18.7084 12.5119 18.2338 12.5278 17.9313 12.2449C16.3226 10.7407 14.2025 9.90388 12.0001 9.90388C9.79767 9.90388 7.67755 10.7407 6.06888 12.2449C5.76633 12.5278 5.29172 12.5119 5.00881 12.2094C4.72591 11.9068 4.74183 11.4322 5.04438 11.1493ZM7.92102 13.9983C9.04506 12.9992 10.4967 12.4473 12.0005 12.4473C13.5044 12.4473 14.956 12.9992 16.08 13.9983C16.3896 14.2734 16.4175 14.7475 16.1424 15.0571C15.8672 15.3667 15.3931 15.3946 15.0835 15.1194C14.2341 14.3643 13.1371 13.9473 12.0005 13.9473C10.864 13.9473 9.76701 14.3643 8.91755 15.1194C8.60795 15.3946 8.1339 15.3667 7.85872 15.0571C7.58354 14.7475 7.61143 14.2734 7.92102 13.9983Z" fill="currentColor"></path>
    <path d="M12 19.4253C11.7033 19.4253 11.4133 19.3373 11.1666 19.1725C10.92 19.0077 10.7277 18.7734 10.6142 18.4993C10.5006 18.2252 10.4709 17.9236 10.5288 17.6327C10.5867 17.3417 10.7296 17.0744 10.9393 16.8646C11.1491 16.6549 11.4164 16.512 11.7074 16.4541C11.9983 16.3962 12.2999 16.4259 12.574 16.5395C12.8481 16.653 13.0824 16.8453 13.2472 17.0919C13.412 17.3386 13.5 17.6286 13.5 17.9253C13.5 18.3231 13.342 18.7046 13.0607 18.986C12.7794 19.2673 12.3978 19.4253 12 19.4253Z" fill="currentColor"></path>
  </symbol>
  <symbol fill="none" xmlns="http://www.w3.org/2000/svg" viewBox="0 0 24 24" id="youtube">
    <path fill-rule="evenodd" clip-rule="evenodd" d="M10.3046 14.1798V9.44986C11.9838 10.24 13.2843 11.0033 14.8224 11.8262C13.5538 12.5297 11.9838 13.3191 10.3046 14.1798ZM19.6625 7.09744C19.3729 6.71582 18.8792 6.41877 18.3536 6.32043C16.8088 6.02707 7.17136 6.02624 5.62739 6.32043C5.20592 6.39944 4.83062 6.59041 4.50823 6.88713C3.1498 8.14796 3.57547 14.9094 3.9029 16.0046C4.04059 16.4787 4.21859 16.8206 4.44275 17.045C4.73156 17.3418 5.127 17.5461 5.58121 17.6377C6.85316 17.9008 13.406 18.0479 18.3267 17.6772C18.7801 17.5982 19.1814 17.3873 19.4979 17.078C20.7539 15.8222 20.6683 8.68104 19.6625 7.09744Z" fill="currentColor"></path>
  </symbol>
  <symbol fill="none" xmlns="http://www.w3.org/2000/svg" viewBox="0 0 24 24" id="box">
    <path d="M6.66 0H17.46L22.4 5C22.6245 5.23113 22.75 5.53963 22.75 5.86L22.64 24H1.26L1.25 6.01C1.24973 5.67096 1.38248 5.34447 1.62 5.1L6.66 0ZM8.85 4.38C9.43667 3.88 9.63333 3.11 9.44 2.07C9.36667 1.68333 9.13667 1.52667 8.75 1.6C7.00333 1.94667 5.67 2.92667 4.75 4.54C4.57667 4.84667 4.66667 4.98667 5.02 4.96C5.64 4.92 6.23 4.89667 6.79 4.89C7.77 4.87667 8.45667 4.70667 8.85 4.38ZM11.09 4.98H12.95C13.011 4.98 13.0695 4.95577 13.1126 4.91263C13.1558 4.8695 13.18 4.811 13.18 4.75V4.6C13.18 3.82557 13.0609 3.08285 12.849 2.53525C12.6371 1.98764 12.3497 1.68 12.05 1.68H11.99C11.6903 1.68 11.4029 1.98764 11.191 2.53525C10.9791 3.08285 10.86 3.82557 10.86 4.6V4.75C10.86 4.811 10.8842 4.8695 10.9274 4.91263C10.9705 4.95577 11.029 4.98 11.09 4.98ZM15.69 4.9L19 4.94C19.3267 4.94667 19.3967 4.78667 19.21 4.46C18.2367 2.78 16.8367 1.83333 15.01 1.62C14.9286 1.61047 14.8461 1.6211 14.7698 1.65096C14.6934 1.68082 14.6256 1.72898 14.5723 1.79121C14.5189 1.85345 14.4817 1.92784 14.4639 2.00784C14.446 2.08785 14.4481 2.17101 14.47 2.25L15.08 4.43C15.1667 4.74333 15.37 4.9 15.69 4.9ZM8.97 15.26C8.88688 15.2574 8.80803 15.2225 8.75016 15.1628C8.6923 15.1031 8.65996 15.0232 8.66 14.94L8.67 7.06C8.67 6.97513 8.63629 6.89374 8.57627 6.83373C8.51626 6.77371 8.43487 6.74 8.35 6.74L3.32 6.75C3.23513 6.75 3.15374 6.78371 3.09373 6.84373C3.03371 6.90374 3 6.98513 3 7.07V21.93C3 22.0149 3.03371 22.0963 3.09373 22.1563C3.15374 22.2163 3.23513 22.25 3.32 22.25H20.68C20.7649 22.25 20.8463 22.2163 20.9063 22.1563C20.9663 22.0963 21 22.0149 21 21.93V7.06C21 6.97513 20.9663 6.89374 20.9063 6.83373C20.8463 6.77371 20.7649 6.74 20.68 6.74L15.63 6.75C15.5451 6.75 15.4637 6.78371 15.4037 6.84373C15.3437 6.90374 15.31 6.98513 15.31 7.07L15.29 15.06C15.29 15.1029 15.2814 15.1453 15.2647 15.1848C15.248 15.2243 15.2235 15.26 15.1928 15.2899C15.162 15.3197 15.1255 15.3431 15.0855 15.3586C15.0455 15.3741 15.0029 15.3813 14.96 15.38L8.97 15.26ZM13.6754 7.1029C13.6755 7.05431 13.666 7.00618 13.6475 6.96126C13.6289 6.91634 13.6018 6.87551 13.5675 6.84109C13.5332 6.80668 13.4924 6.77936 13.4475 6.76069C13.4027 6.74203 13.3546 6.73238 13.306 6.7323L10.686 6.7277C10.6374 6.72762 10.5893 6.73711 10.5444 6.75563C10.4994 6.77416 10.4586 6.80134 10.4242 6.83565C10.3898 6.86995 10.3625 6.91069 10.3438 6.95555C10.3251 7.00041 10.3155 7.04851 10.3154 7.0971L10.3046 13.2371C10.3045 13.2857 10.314 13.3338 10.3325 13.3787C10.3511 13.4237 10.3782 13.4645 10.4125 13.4989C10.4468 13.5333 10.4876 13.5606 10.5325 13.5793C10.5773 13.598 10.6254 13.6076 10.674 13.6077L13.294 13.6123C13.3426 13.6124 13.3907 13.6029 13.4356 13.5844C13.4806 13.5658 13.5214 13.5387 13.5558 13.5044C13.5902 13.4701 13.6175 13.4293 13.6362 13.3844C13.6549 13.3396 13.6645 13.2915 13.6646 13.2429L13.6754 7.1029Z" fill="currentColor"></path>
  </symbol>
  <symbol fill="none" xmlns="http://www.w3.org/2000/svg" viewBox="0 0 24 24" id="checkmark">
    <path fill-rule="evenodd" clip-rule="evenodd" d="M2.25 12C2.25 6.61704 6.61704 2.25 12 2.25C17.383 2.25 21.75 6.61704 21.75 12C21.75 17.383 17.383 21.75 12 21.75C6.61704 21.75 2.25 17.383 2.25 12ZM12 3.75C7.44546 3.75 3.75 7.44546 3.75 12C3.75 16.5545 7.44546 20.25 12 20.25C16.5545 20.25 20.25 16.5545 20.25 12C20.25 7.44546 16.5545 3.75 12 3.75Z" fill="currentColor"></path>
    <path fill-rule="evenodd" clip-rule="evenodd" d="M16.9824 7.67574C17.2996 7.94216 17.3407 8.41525 17.0743 8.73241L10.7743 16.2324C10.6347 16.3986 10.4299 16.4962 10.2128 16.4999C9.99576 16.5036 9.78776 16.4131 9.64254 16.2517L6.94254 13.2517C6.66544 12.9439 6.6904 12.4696 6.99828 12.1925C7.30617 11.9155 7.78038 11.9404 8.05748 12.2483L10.1805 14.6072L15.9257 7.76762C16.1921 7.45046 16.6652 7.40932 16.9824 7.67574Z" fill="currentColor"></path>
  </symbol>
  <symbol fill="none" xmlns="http://www.w3.org/2000/svg" viewBox="0 0 24 24" id="chevron-down">
    <path fill-rule="evenodd" clip-rule="evenodd" d="M4.4545 7.8295C4.89384 7.39017 5.60616 7.39017 6.0455 7.8295L12 13.784L17.9545 7.8295C18.3938 7.39017 19.1062 7.39017 19.5455 7.8295C19.9848 8.26884 19.9848 8.98116 19.5455 9.4205L12.7955 16.1705C12.3562 16.6098 11.6438 16.6098 11.2045 16.1705L4.4545 9.4205C4.01517 8.98116 4.01517 8.26884 4.4545 7.8295Z" fill="currentColor"></path>
  </symbol>
  <symbol fill="none" xmlns="http://www.w3.org/2000/svg" viewBox="0 0 24 24" id="chevron-up">
    <path fill-rule="evenodd" clip-rule="evenodd" d="M4.4545 16.1705C4.89384 16.6098 5.60616 16.6098 6.0455 16.1705L12 10.216L17.9545 16.1705C18.3938 16.6098 19.1062 16.6098 19.5455 16.1705C19.9848 15.7312 19.9848 15.0188 19.5455 14.5795L12.7955 7.8295C12.3562 7.3902 11.6438 7.3902 11.2045 7.8295L4.4545 14.5795C4.01517 15.0188 4.01517 15.7312 4.4545 16.1705Z" fill="currentColor"/>
  </symbol>
  <symbol fill="none" xmlns="http://www.w3.org/2000/svg" viewBox="0 0 24 24" id="tiktok">
    <path d="M12.3613 3.76863C13.2616 3.75488 14.1552 3.76203 15.0483 3.75488C15.078 4.87178 15.5311 5.87704 16.2521 6.62163L16.251 6.62053C17.0269 7.31949 18.0366 7.77262 19.1496 7.84961L19.165 7.85071V10.6201C18.1135 10.5937 17.1248 10.3512 16.2334 9.93437L16.2784 9.95307C15.8473 9.74575 15.4827 9.53293 15.1363 9.29536L15.1649 9.31406C15.1583 11.3207 15.1715 13.3274 15.1511 15.3269C15.0945 16.3459 14.7557 17.2753 14.2124 18.0512L14.2234 18.0342C13.3149 19.3353 11.8433 20.1893 10.1699 20.2399H10.1622C10.0946 20.2432 10.0148 20.2449 9.93453 20.2449C8.98316 20.2449 8.09394 19.9798 7.33614 19.5195L7.35814 19.5322C5.97893 18.7023 5.02756 17.2824 4.85159 15.631L4.84939 15.6085C4.83564 15.2648 4.82904 14.9211 4.84279 14.5845C5.11225 11.9564 7.31415 9.92337 9.99062 9.92337C10.2914 9.92337 10.5862 9.94922 10.8727 9.99816L10.8419 9.99376C10.8557 11.0106 10.8144 12.0279 10.8144 13.0447C10.5818 12.9606 10.3134 12.9117 10.0335 12.9117C9.00626 12.9117 8.13243 13.5683 7.80908 14.485L7.80413 14.5015C7.73099 14.7363 7.68864 15.0063 7.68864 15.2857C7.68864 15.399 7.69579 15.5111 7.70899 15.6211L7.70789 15.6079C7.89047 16.7331 8.85503 17.5822 10.0181 17.5822C10.0517 17.5822 10.0847 17.5816 10.1177 17.58H10.1127C10.9172 17.5558 11.6156 17.123 12.0105 16.4834L12.016 16.4735C12.1628 16.2689 12.2635 16.0215 12.297 15.7526L12.2976 15.7449C12.3663 14.5147 12.3388 13.2917 12.3454 12.0615C12.352 9.29206 12.3388 6.52925 12.3591 3.76698L12.3613 3.76863Z" fill="currentColor"></path>
  </symbol>
  <symbol fill="none" xmlns="http://www.w3.org/2000/svg" viewBox="0 0 24 24" id="chevron-right">
    <path fill-rule="evenodd" clip-rule="evenodd" d="M7.8295 4.4545C8.26884 4.01517 8.98116 4.01517 9.4205 4.4545L16.1705 11.2045C16.6098 11.6438 16.6098 12.3562 16.1705 12.7955L9.4205 19.5455C8.98116 19.9848 8.26884 19.9848 7.8295 19.5455C7.39017 19.1062 7.39017 18.3938 7.8295 17.9545L13.784 12L7.8295 6.0455C7.39017 5.60616 7.39017 4.89384 7.8295 4.4545Z" fill="currentColor"></path>
  </symbol>
  <symbol fill="none" xmlns="http://www.w3.org/2000/svg" viewBox="0 0 24 24" id="chevron-left">
    <path fill-rule="evenodd" clip-rule="evenodd" d="M16.1705 4.4545C15.7312 4.01517 15.0188 4.01517 14.5795 4.4545L7.8295 11.2045C7.3902 11.6438 7.3902 12.3562 7.8295 12.7955L14.5795 19.5455C15.0188 19.9848 15.7312 19.9848 16.1705 19.5455C16.6098 19.1062 16.6098 18.3938 16.1705 17.9545L10.216 12L16.1705 6.0455C16.6098 5.60616 16.6098 4.89384 16.1705 4.4545Z" fill="currentColor"/>
  </symbol>
  <symbol fill="none" xmlns="http://www.w3.org/2000/svg" viewBox="0 0 24 24" id="gear">
    <path d="M21.4078 11.3564L20.1853 11.1595C20.1064 11.1462 20.0338 11.108 19.9781 11.0505C19.9225 10.9929 19.8867 10.9191 19.876 10.8398C19.8525 10.6898 19.8291 10.5393 19.7963 10.394C19.7804 10.316 19.7895 10.235 19.8224 10.1624C19.8552 10.0899 19.91 10.0295 19.9791 9.98994L21.0614 9.38901C21.1434 9.34712 21.2072 9.27673 21.2408 9.1911C21.2745 9.10546 21.2757 9.01048 21.2442 8.92401L21.0567 8.40838C21.0254 8.32168 20.9629 8.2497 20.8815 8.2064C20.8001 8.1631 20.7056 8.15155 20.6161 8.17401L19.4025 8.40838C19.3236 8.42365 19.2419 8.41318 19.1694 8.37849C19.0969 8.3438 19.0375 8.28675 18.9999 8.21573C18.9296 8.08448 18.8546 7.95307 18.7749 7.82151C18.7328 7.7531 18.7133 7.67318 18.7192 7.59308C18.7251 7.51299 18.7561 7.43678 18.8077 7.37526L19.6182 6.44057C19.681 6.37369 19.7172 6.28608 19.7198 6.19433C19.7223 6.10259 19.6912 6.01308 19.6322 5.94276L19.2811 5.52088C19.2226 5.44993 19.1397 5.40336 19.0487 5.39027C18.9577 5.37718 18.8651 5.39851 18.7889 5.4501L17.7253 6.08901C17.657 6.12952 17.5775 6.14727 17.4984 6.13969C17.4193 6.13211 17.3446 6.09959 17.2852 6.04682C17.1727 5.94791 17.0555 5.84948 16.9383 5.75526C16.876 5.70573 16.831 5.63766 16.81 5.56089C16.7889 5.48411 16.7928 5.40263 16.8211 5.32823L17.2617 4.16807C17.2992 4.0839 17.3044 3.98887 17.2763 3.90112C17.2482 3.81336 17.1888 3.73902 17.1094 3.69229L16.6313 3.41526C16.5515 3.36995 16.4578 3.35546 16.3681 3.37456C16.2783 3.39365 16.1987 3.44499 16.1442 3.51885L15.3642 4.49573C15.3207 4.55721 15.2577 4.60221 15.1854 4.62347C15.1131 4.64473 15.0357 4.64101 14.9658 4.61291C14.9658 4.61291 14.7033 4.5051 14.5064 4.43901C14.4309 4.41384 14.3654 4.3653 14.3193 4.30042C14.2732 4.23553 14.2489 4.15766 14.25 4.07807L14.2688 2.83823C14.2743 2.74601 14.2459 2.65496 14.1889 2.58225C14.1319 2.50954 14.0503 2.4602 13.9594 2.44354L13.4161 2.34979C13.3252 2.33404 13.2316 2.35208 13.1531 2.40051C13.0745 2.44895 13.0163 2.52443 12.9896 2.61276L12.5864 3.78698C12.5606 3.86266 12.5112 3.9281 12.4455 3.97372C12.3798 4.01934 12.3012 4.04277 12.2213 4.04057H11.7619C11.6821 4.04226 11.6037 4.01863 11.5381 3.97308C11.4725 3.92752 11.4231 3.86238 11.3967 3.78698L10.9936 2.61276C10.9668 2.52443 10.9087 2.44895 10.8301 2.40051C10.7516 2.35208 10.658 2.33404 10.5671 2.34979L10.0238 2.44354C9.93291 2.4602 9.85128 2.50954 9.79429 2.58225C9.7373 2.65496 9.70888 2.74601 9.7144 2.83823L9.73315 4.07807C9.73429 4.15785 9.70994 4.23592 9.66366 4.30091C9.61738 4.36591 9.55157 4.41445 9.47581 4.43948C9.368 4.48166 9.13362 4.57119 9.02112 4.61338C8.88987 4.66026 8.73518 4.62276 8.60862 4.47698L7.83472 3.52354C7.78 3.44998 7.70024 3.39902 7.6105 3.38028C7.52076 3.36153 7.42727 3.37631 7.34768 3.42182L6.86956 3.69885C6.78995 3.7447 6.73011 3.81837 6.70155 3.90568C6.67299 3.993 6.67774 4.08779 6.71487 4.17182L7.1555 5.33198C7.18338 5.40643 7.18706 5.48779 7.16602 5.56446C7.14498 5.64113 7.10029 5.70921 7.03831 5.75901C6.92112 5.85276 6.80393 5.95166 6.69143 6.05057C6.632 6.10334 6.55735 6.13586 6.47824 6.14344C6.39912 6.15102 6.31965 6.13327 6.25128 6.09276L5.20315 5.44401C5.12663 5.39365 5.03432 5.37305 4.94364 5.38609C4.85297 5.39913 4.7702 5.44491 4.71097 5.51479L4.35987 5.93666C4.30089 6.00698 4.26974 6.09649 4.27234 6.18824C4.27493 6.27999 4.31108 6.3676 4.37393 6.43448L5.1844 7.36916C5.2371 7.43014 5.26875 7.50648 5.27466 7.58686C5.28057 7.66724 5.26043 7.74738 5.21722 7.81541C5.13753 7.94041 5.06253 8.07182 4.99222 8.20963C4.95399 8.2801 4.89446 8.33668 4.82214 8.37128C4.74982 8.40588 4.66842 8.41674 4.58956 8.40229L3.37597 8.16791C3.28656 8.14611 3.19225 8.15794 3.111 8.20116C3.02975 8.24437 2.96723 8.31596 2.93534 8.40229L2.74784 8.91791C2.71638 9.00438 2.71759 9.09937 2.75126 9.185C2.78493 9.27064 2.84873 9.34102 2.93065 9.38291L4.01159 9.98432C4.08138 10.0231 4.13683 10.0834 4.16975 10.1561C4.20267 10.2289 4.21131 10.3103 4.1944 10.3884C4.16628 10.5384 4.13815 10.6842 4.11472 10.8342C4.10346 10.9133 4.06748 10.9868 4.01191 11.0442C3.95634 11.1016 3.88404 11.14 3.80534 11.1539L2.58284 11.3507C2.49187 11.3619 2.40803 11.4057 2.34685 11.474C2.28566 11.5422 2.25127 11.6303 2.25003 11.722V12.2714C2.24889 12.3637 2.28246 12.4531 2.3441 12.5218C2.40573 12.5906 2.49094 12.6337 2.58284 12.6426L3.80534 12.8395C3.88428 12.8528 3.95689 12.891 4.01255 12.9485C4.06822 13.006 4.10402 13.0798 4.11472 13.1592C4.13815 13.3092 4.16159 13.4596 4.1944 13.6049C4.21027 13.683 4.20114 13.764 4.16832 13.8365C4.1355 13.9091 4.08066 13.9694 4.01159 14.009L2.92925 14.6109C2.84732 14.6528 2.78352 14.7232 2.74985 14.8088C2.71619 14.8944 2.71497 14.9894 2.74643 15.0759L2.93393 15.5915C2.9653 15.6782 3.02774 15.7502 3.10914 15.7935C3.19055 15.8368 3.28513 15.8483 3.37456 15.8259L4.58815 15.5915C4.66705 15.5762 4.74877 15.5867 4.82127 15.6214C4.89376 15.6561 4.9532 15.7131 4.99081 15.7842C5.06112 15.9154 5.13612 16.0468 5.21581 16.1784C5.25788 16.2468 5.27735 16.3267 5.27146 16.4068C5.26557 16.4869 5.23462 16.5631 5.183 16.6246L4.37253 17.5603C4.30967 17.6271 4.27352 17.7147 4.27093 17.8065C4.26834 17.8982 4.29948 17.9877 4.35847 18.0581L4.70956 18.4799C4.76807 18.5509 4.85093 18.5975 4.94196 18.6106C5.03298 18.6236 5.12562 18.6023 5.20175 18.5507L6.26534 17.9118C6.33371 17.8713 6.41319 17.8536 6.4923 17.8611C6.57141 17.8687 6.64607 17.9012 6.7055 17.954C6.818 18.0529 6.93518 18.1514 7.05237 18.2456C7.1147 18.2951 7.15966 18.3632 7.18073 18.4399C7.20179 18.5167 7.19788 18.5982 7.16956 18.6726L6.72893 19.8328C6.69204 19.917 6.68741 20.0119 6.71593 20.0994C6.74446 20.1869 6.80414 20.2608 6.88362 20.3071L7.36175 20.5842C7.44154 20.6295 7.53518 20.644 7.62494 20.6249C7.71469 20.6058 7.79433 20.5544 7.84878 20.4806L8.63581 19.5131C8.73425 19.3912 8.89362 19.3396 9.02018 19.3912C9.17956 19.4568 9.28737 19.4943 9.48425 19.5604C9.56001 19.5854 9.62582 19.634 9.6721 19.699C9.71838 19.764 9.74272 19.842 9.74159 19.9218L9.72284 21.1617C9.71732 21.2539 9.74573 21.3449 9.80273 21.4176C9.85972 21.4903 9.94135 21.5397 10.0322 21.5564L10.5755 21.6501C10.6664 21.6659 10.76 21.6478 10.8386 21.5994C10.9171 21.5509 10.9753 21.4755 11.0021 21.3871L11.4052 20.2153C11.431 20.1396 11.4804 20.0741 11.5461 20.0285C11.6118 19.9829 11.6904 19.9595 11.7703 19.9617H12.2297C12.3096 19.96 12.3879 19.9836 12.4535 20.0292C12.5191 20.0747 12.5686 20.1399 12.5949 20.2153L12.998 21.3871C13.0248 21.4755 13.0829 21.5509 13.1615 21.5994C13.2401 21.6478 13.3336 21.6659 13.4246 21.6501L13.9678 21.5564C14.0587 21.5397 14.1403 21.4903 14.1973 21.4176C14.2543 21.3449 14.2827 21.2539 14.2772 21.1617L14.2585 19.9218C14.2573 19.842 14.2817 19.764 14.328 19.699C14.3742 19.634 14.44 19.5854 14.5158 19.5604C14.7127 19.4943 14.8439 19.4428 14.9658 19.3959C15.0877 19.349 15.2377 19.349 15.3549 19.4943L16.1517 20.4759C16.2065 20.55 16.2865 20.6014 16.3767 20.6202C16.4669 20.6391 16.5608 20.6241 16.6407 20.5781L17.1188 20.301C17.1988 20.2552 17.259 20.1813 17.2875 20.0937C17.3161 20.006 17.3111 19.9108 17.2735 19.8267L16.8328 18.6665C16.805 18.592 16.8013 18.5106 16.8224 18.4338C16.8434 18.3571 16.8881 18.2889 16.95 18.239C17.0672 18.1453 17.1844 18.0468 17.2969 17.9479C17.3563 17.8951 17.431 17.8626 17.5101 17.855C17.5892 17.8475 17.6687 17.8652 17.7371 17.9057L18.7969 18.5465C18.8734 18.5969 18.9657 18.6175 19.0564 18.6044C19.1471 18.5914 19.2299 18.5456 19.2891 18.4757L19.6402 18.0539C19.6992 17.9835 19.7303 17.894 19.7277 17.8023C19.7251 17.7105 19.689 17.6229 19.6261 17.556L18.8157 16.6214C18.763 16.5604 18.7313 16.484 18.7254 16.4037C18.7195 16.3233 18.7396 16.2431 18.7828 16.1751C18.8625 16.0485 18.9375 15.9171 19.0078 15.7809C19.0461 15.7104 19.1056 15.6538 19.1779 15.6192C19.2502 15.5846 19.3316 15.5738 19.4105 15.5882L20.6241 15.8226C20.7135 15.8444 20.8078 15.8326 20.8891 15.7894C20.9703 15.7461 21.0328 15.6746 21.0647 15.5882L21.2522 15.0726C21.2837 14.9861 21.2825 14.8911 21.2488 14.8055C21.2151 14.7199 21.1513 14.6495 21.0694 14.6076L19.9871 14.0067C19.9173 13.9678 19.8618 13.9076 19.8289 13.8348C19.796 13.7621 19.7873 13.6807 19.8042 13.6026C19.8324 13.4526 19.8605 13.3068 19.8839 13.1568C19.8952 13.0777 19.9312 13.0042 19.9867 12.9468C20.0423 12.8893 20.1146 12.851 20.1933 12.8371L21.4158 12.6403C21.5068 12.629 21.5906 12.5853 21.6518 12.517C21.713 12.4488 21.7474 12.3607 21.7486 12.269V11.7187C21.7435 11.6279 21.7065 11.5417 21.6442 11.4755C21.5819 11.4092 21.4982 11.367 21.4078 11.3564ZM12 5.24994C13.4972 5.24931 14.952 5.74707 16.135 6.66473C17.318 7.5824 18.1618 8.86775 18.5335 10.3181C18.5611 10.4287 18.5632 10.5441 18.5395 10.6556C18.5158 10.7672 18.4671 10.8718 18.3969 10.9617C18.3267 11.0515 18.237 11.1242 18.1345 11.1741C18.032 11.2241 17.9195 11.25 17.8055 11.2499H12.8724C12.7399 11.25 12.6097 11.2149 12.4952 11.1483C12.3807 11.0817 12.2858 10.9859 12.2203 10.8707L9.77815 6.57182C9.72129 6.47188 9.68816 6.3602 9.68134 6.24541C9.67452 6.13062 9.69418 6.0158 9.73881 5.90983C9.78343 5.80385 9.85183 5.70956 9.93872 5.63423C10.0256 5.55891 10.1286 5.50457 10.2399 5.47541C10.8144 5.32468 11.406 5.24889 12 5.24994ZM5.25003 11.9999C5.24919 11.0961 5.42986 10.2014 5.78133 9.3687C6.1328 8.53604 6.64792 7.78244 7.29612 7.1526C7.37797 7.07157 7.47739 7.01048 7.58665 6.97407C7.69592 6.93765 7.81211 6.92689 7.9262 6.94262C8.0403 6.95835 8.14924 7.00015 8.24458 7.06477C8.33992 7.12939 8.41909 7.2151 8.47597 7.31526L10.9247 11.6249C10.9894 11.7382 11.0234 11.8664 11.0234 11.9969C11.0234 12.1274 10.9894 12.2556 10.9247 12.3689L8.45581 16.6673C8.39849 16.7672 8.31895 16.8525 8.22335 16.9167C8.12775 16.9808 8.01866 17.0221 7.90453 17.0374C7.7904 17.0526 7.67429 17.0413 7.56521 17.0045C7.45612 16.9676 7.35699 16.9061 7.2755 16.8248C6.63361 16.196 6.1238 15.4452 5.77598 14.6167C5.42817 13.7882 5.24935 12.8985 5.25003 11.9999ZM12 18.7499C11.3957 18.7515 10.7938 18.6735 10.2099 18.5179C10.0987 18.4884 9.99576 18.4336 9.9091 18.3579C9.82245 18.2822 9.75437 18.1876 9.71014 18.0814C9.66591 17.9751 9.64671 17.8602 9.65404 17.7453C9.66136 17.6305 9.69501 17.5189 9.75237 17.4192L12.2171 13.1278C12.283 13.0136 12.3778 12.9188 12.4921 12.853C12.6063 12.7871 12.7358 12.7526 12.8677 12.7528H17.8078C17.9218 12.7528 18.0343 12.7788 18.1367 12.8287C18.2391 12.8787 18.3288 12.9514 18.3989 13.0412C18.469 13.1311 18.5178 13.2357 18.5414 13.3472C18.5651 13.4587 18.563 13.5741 18.5353 13.6846C18.1629 15.1347 17.3185 16.4195 16.1353 17.3366C14.952 18.2538 13.4971 18.751 12 18.7499Z" fill="currentColor"></path>
  </symbol>
  <symbol fill="none" xmlns="http://www.w3.org/2000/svg" viewBox="0 0 24 24" id="close">
    <path d="M6.39999 19L5 17.6L10.6 12L5 6.4L6.39999 5L12 10.6L17.6 5L19 6.4L13.4 12L19 17.6L17.6 19L12 13.4L6.39999 19Z" fill="currentColor"/>
  </symbol>
  <symbol fill="none" xmlns="http://www.w3.org/2000/svg" viewBox="0 0 24 24" id="discord">
    <path d="M8.21604 15.3057L8.61604 15.5457C8.81365 15.6704 8.95429 15.8628 9.00957 16.0839C9.06484 16.305 9.03063 16.5383 8.91384 16.7369C8.79706 16.9354 8.60639 17.0843 8.38035 17.1534C8.15431 17.2226 7.90975 17.207 7.69604 17.1096L4.45604 15.5612C4.32252 15.4977 4.20862 15.4013 4.12577 15.2817C4.04292 15.1621 3.99404 15.0235 3.98404 14.8799C3.81337 12.196 4.34937 9.69022 5.59204 7.36248C6.46404 5.72893 7.84004 5.24119 9.60004 5.00119C9.85604 4.96506 10.0347 5.06313 10.136 5.29539L10.224 5.51216C10.2934 5.67216 10.416 5.75216 10.592 5.75216L13.84 5.7599C14.0694 5.7599 14.24 5.66442 14.352 5.47345L14.456 5.30313C14.584 5.08119 14.776 4.99087 15.032 5.03216C16.568 5.28764 17.912 5.59732 18.744 7.00635C20.184 9.4528 20.7707 12.1057 20.504 14.9651C20.4774 15.2593 20.328 15.4709 20.056 15.5999L16.848 17.1018C16.4854 17.2722 16.1974 17.1922 15.984 16.8618L15.608 16.2889C15.4374 16.0257 15.4934 15.8141 15.776 15.6541L16.392 15.298C16.4324 15.2678 16.4605 15.2248 16.4712 15.1765C16.482 15.1283 16.4747 15.0779 16.4508 15.0343C16.4268 14.9907 16.3877 14.9568 16.3403 14.9384C16.293 14.9201 16.2404 14.9186 16.192 14.9341C13.6107 16.1367 11.016 16.1496 8.40804 14.9728C8.36362 14.9578 8.31517 14.9585 8.2712 14.9747C8.22724 14.9909 8.19057 15.0215 8.16765 15.0613C8.14472 15.101 8.13701 15.1473 8.14586 15.192C8.15471 15.2367 8.17956 15.277 8.21604 15.3057ZM9.52668 13.3005C9.71893 13.2988 9.90891 13.2552 10.0858 13.172C10.2627 13.0888 10.423 12.9677 10.5575 12.8156C10.6921 12.6634 10.7983 12.4833 10.8701 12.2854C10.9419 12.0876 10.9779 11.8758 10.976 11.6624C10.9721 11.2312 10.8141 10.819 10.5368 10.5164C10.2595 10.2139 9.88565 10.0457 9.4974 10.049C9.30515 10.0506 9.11516 10.0943 8.93829 10.1775C8.76141 10.2607 8.6011 10.3818 8.46653 10.5339C8.33195 10.686 8.22573 10.8662 8.15394 11.064C8.08215 11.2619 8.04619 11.4736 8.04812 11.6871C8.05202 12.1183 8.20998 12.5305 8.48726 12.833C8.76454 13.1356 9.13843 13.3037 9.52668 13.3005ZM15.0904 13.2995C15.2835 13.293 15.4733 13.2447 15.6489 13.1574C15.8244 13.0701 15.9823 12.9456 16.1135 12.7908C16.2447 12.636 16.3466 12.4541 16.4135 12.2554C16.4803 12.0567 16.5108 11.8451 16.5032 11.6328C16.4877 11.2039 16.3178 10.7978 16.031 10.5039C15.7442 10.21 15.3639 10.0522 14.9737 10.0654C14.7805 10.0719 14.5907 10.1202 14.4152 10.2075C14.2396 10.2948 14.0818 10.4194 13.9506 10.5742C13.8194 10.729 13.7174 10.9109 13.6506 11.1096C13.5837 11.3083 13.5533 11.5198 13.5609 11.7322C13.5764 12.1611 13.7462 12.5671 14.0331 12.8611C14.3199 13.155 14.7002 13.3127 15.0904 13.2995Z" fill="currentColor"/>
  </symbol>
  <symbol fill="none" xmlns="http://www.w3.org/2000/svg" viewBox="0 0 24 24" id="facebook">
      <path fill-rule="evenodd" clip-rule="evenodd" d="M13.5299 20.4001V12.8401H15.8251L16.2 9.4801H13.5299V7.84357C13.5299 6.97837 13.552 6.1201 14.761 6.1201H15.9856V3.71781C15.9856 3.68169 14.9337 3.6001 13.8696 3.6001C11.6472 3.6001 10.2557 4.99214 10.2557 7.54826V9.4801H7.80005V12.8401H10.2557V20.4001H13.5299Z" fill="currentColor"/>
  </symbol>
  <symbol fill="none" xmlns="http://www.w3.org/2000/svg" viewBox="0 0 24 24" id="lock">
    <path d="M9.68995 4.41014C11.4099 2.89014 12.9699 0.680145 15.5699 0.510145C18.4499 0.320145 21.5099 2.97015 22.7899 5.26015C25.8499 10.7701 19.4899 12.6201 18.1099 16.6801C16.4766 21.4868 13.3833 23.7035 8.82995 23.3301C-0.940051 22.5201 -2.44005 9.29014 6.30995 6.18014C7.82995 5.64014 8.95662 5.05014 9.68995 4.41014ZM11.9099 5.96014C14.9766 6.95348 17.0399 8.95681 18.0999 11.9701C18.1999 12.2435 18.3766 12.3068 18.6299 12.1601C24.4699 8.79014 20.1099 2.44015 15.2099 2.40015C14.8166 2.40015 14.4766 2.53681 14.1899 2.81014L11.7299 5.20014C11.3699 5.55348 11.4299 5.80681 11.9099 5.96014ZM16.7299 14.5601C16.7299 12.6347 15.9651 10.7881 14.6035 9.42655C13.242 8.06504 11.3954 7.30015 9.46995 7.30015C7.54448 7.30015 5.69787 8.06504 4.33635 9.42655C2.97484 10.7881 2.20995 12.6347 2.20995 14.5601C2.20995 16.4856 2.97484 18.3322 4.33635 19.6937C5.69787 21.0553 7.54448 21.8201 9.46995 21.8201C11.3954 21.8201 13.242 21.0553 14.6035 19.6937C15.9651 18.3322 16.7299 16.4856 16.7299 14.5601Z" fill="currentColor"></path>
    <path d="M7.76019 14.5199C7.58019 12.8065 8.34019 11.8465 10.0402 11.6399C10.3558 11.6024 10.6758 11.636 10.9766 11.7382C11.2774 11.8405 11.5512 12.0087 11.7778 12.2305C12.0044 12.4523 12.178 12.722 12.2857 13.0196C12.3935 13.3173 12.4326 13.6352 12.4002 13.9499C12.3202 14.7432 11.9935 15.3765 11.4202 15.8499C11.2002 16.0299 10.9502 16.1299 10.6702 16.1499C9.22353 16.2565 8.12019 16.9132 7.36019 18.1199C7.22708 18.3177 7.0258 18.4595 6.79475 18.5183C6.56371 18.5771 6.3191 18.5488 6.10762 18.4387C5.89614 18.3287 5.7326 18.1446 5.64823 17.9216C5.56385 17.6986 5.56455 17.4524 5.65019 17.2299C5.93019 16.5632 6.50019 15.9465 7.36019 15.3799C7.49868 15.2864 7.60909 15.1569 7.67956 15.0054C7.75003 14.8539 7.77791 14.686 7.76019 14.5199Z" fill="currentColor"></path>
  </symbol>
  <symbol fill="none" xmlns="http://www.w3.org/2000/svg" viewBox="0 0 24 24" id="instagram">
    <path fill-rule="evenodd" clip-rule="evenodd" d="M12 15.8182C14.1087 15.8182 15.8182 14.1087 15.8182 12C15.8182 9.89128 14.1087 8.18182 12 8.18182C9.89128 8.18182 8.18182 9.89128 8.18182 12C8.18182 14.1087 9.89128 15.8182 12 15.8182ZM12 14.5455C13.4058 14.5455 14.5455 13.4058 14.5455 12C14.5455 10.5942 13.4058 9.45455 12 9.45455C10.5942 9.45455 9.45455 10.5942 9.45455 12C9.45455 13.4058 10.5942 14.5455 12 14.5455Z" fill="currentColor"></path>
    <path d="M15.8182 7.54545C15.4667 7.54545 15.1818 7.83037 15.1818 8.18182C15.1818 8.53327 15.4667 8.81818 15.8182 8.81818C16.1696 8.81818 16.4545 8.53327 16.4545 8.18182C16.4545 7.83037 16.1696 7.54545 15.8182 7.54545Z" fill="currentColor"></path>
    <path fill-rule="evenodd" clip-rule="evenodd" d="M5.41616 7.08477C5 7.90152 5 8.97071 5 11.1091V12.8909C5 15.0293 5 16.0985 5.41616 16.9152C5.78222 17.6337 6.36632 18.2178 7.08477 18.5838C7.90152 19 8.97071 19 11.1091 19H12.8909C15.0293 19 16.0985 19 16.9152 18.5838C17.6337 18.2178 18.2178 17.6337 18.5838 16.9152C19 16.0985 19 15.0293 19 12.8909V11.1091C19 8.97071 19 7.90152 18.5838 7.08477C18.2178 6.36632 17.6337 5.78222 16.9152 5.41616C16.0985 5 15.0293 5 12.8909 5H11.1091C8.97071 5 7.90152 5 7.08477 5.41616C6.36632 5.78222 5.78222 6.36632 5.41616 7.08477ZM12.8909 6.27273H11.1091C10.0189 6.27273 9.2778 6.27372 8.70496 6.32052C8.14697 6.36611 7.86163 6.44874 7.66257 6.55016C7.18361 6.79421 6.79421 7.18361 6.55016 7.66257C6.44874 7.86163 6.36611 8.14697 6.32052 8.70496C6.27372 9.2778 6.27273 10.0189 6.27273 11.1091V12.8909C6.27273 13.9811 6.27372 14.7222 6.32052 15.295C6.36611 15.8531 6.44874 16.1384 6.55016 16.3375C6.79421 16.8164 7.18361 17.2058 7.66257 17.4498C7.86163 17.5513 8.14697 17.6339 8.70496 17.6795C9.2778 17.7263 10.0189 17.7273 11.1091 17.7273H12.8909C13.9811 17.7273 14.7222 17.7263 15.295 17.6795C15.8531 17.6339 16.1384 17.5513 16.3375 17.4498C16.8164 17.2058 17.2058 16.8164 17.4498 16.3375C17.5513 16.1384 17.6339 15.8531 17.6795 15.295C17.7263 14.7222 17.7273 13.9811 17.7273 12.8909V11.1091C17.7273 10.0189 17.7263 9.2778 17.6795 8.70496C17.6339 8.14697 17.5513 7.86163 17.4498 7.66257C17.2058 7.18361 16.8164 6.79421 16.3375 6.55016C16.1384 6.44874 15.8531 6.36611 15.295 6.32052C14.7222 6.27372 13.9811 6.27273 12.8909 6.27273Z" fill="currentColor"></path>
  </symbol>
  <symbol fill="none" xmlns="http://www.w3.org/2000/svg" viewBox="0 0 24 24" id="keypad">
    <path fill-rule="evenodd" clip-rule="evenodd" d="M12 20.25C11.5858 20.25 11.25 20.5858 11.25 21C11.25 21.4142 11.5858 21.75 12 21.75C12.4142 21.75 12.75 21.4142 12.75 21C12.75 20.5858 12.4142 20.25 12 20.25ZM9.75 21C9.75 19.7574 10.7574 18.75 12 18.75C13.2426 18.75 14.25 19.7574 14.25 21C14.25 22.2426 13.2426 23.25 12 23.25C10.7574 23.25 9.75 22.2426 9.75 21Z" fill="currentColor"></path>
    <path fill-rule="evenodd" clip-rule="evenodd" d="M12 14.25C11.5858 14.25 11.25 14.5858 11.25 15C11.25 15.4142 11.5858 15.75 12 15.75C12.4142 15.75 12.75 15.4142 12.75 15C12.75 14.5858 12.4142 14.25 12 14.25ZM9.75 15C9.75 13.7574 10.7574 12.75 12 12.75C13.2426 12.75 14.25 13.7574 14.25 15C14.25 16.2426 13.2426 17.25 12 17.25C10.7574 17.25 9.75 16.2426 9.75 15Z" fill="currentColor"></path>
    <path fill-rule="evenodd" clip-rule="evenodd" d="M12 8.25C11.8517 8.25 11.7067 8.29399 11.5833 8.3764C11.46 8.45881 11.3639 8.57594 11.3071 8.71299C11.2503 8.85003 11.2355 9.00083 11.2644 9.14632C11.2933 9.2918 11.3648 9.42544 11.4697 9.53033C11.5746 9.63522 11.7082 9.70665 11.8537 9.73559C11.9992 9.76453 12.15 9.74967 12.287 9.69291C12.4241 9.63614 12.5412 9.54002 12.6236 9.41668C12.706 9.29334 12.75 9.14834 12.75 9C12.75 8.80109 12.671 8.61032 12.5303 8.46967C12.3897 8.32902 12.1989 8.25 12 8.25ZM10.75 7.12919C11.12 6.88196 11.555 6.75 12 6.75C12.5967 6.75 13.169 6.98705 13.591 7.40901C14.0129 7.83097 14.25 8.40326 14.25 9C14.25 9.44501 14.118 9.88002 13.8708 10.25C13.6236 10.62 13.2722 10.9084 12.861 11.0787C12.4499 11.249 11.9975 11.2936 11.561 11.2068C11.1246 11.12 10.7237 10.9057 10.409 10.591C10.0943 10.2763 9.88005 9.87541 9.79323 9.43895C9.70642 9.0025 9.75097 8.5501 9.92127 8.13896C10.0916 7.72783 10.38 7.37643 10.75 7.12919Z" fill="currentColor"></path>
    <path fill-rule="evenodd" clip-rule="evenodd" d="M12 2.25C11.5858 2.25 11.25 2.58579 11.25 3C11.25 3.41421 11.5858 3.75 12 3.75C12.4142 3.75 12.75 3.41421 12.75 3C12.75 2.58579 12.4142 2.25 12 2.25ZM9.75 3C9.75 1.75736 10.7574 0.75 12 0.75C13.2426 0.75 14.25 1.75736 14.25 3C14.25 4.24264 13.2426 5.25 12 5.25C10.7574 5.25 9.75 4.24264 9.75 3Z" fill="currentColor"></path>
    <path fill-rule="evenodd" clip-rule="evenodd" d="M18 14.25C17.5858 14.25 17.25 14.5858 17.25 15C17.25 15.4142 17.5858 15.75 18 15.75C18.4142 15.75 18.75 15.4142 18.75 15C18.75 14.5858 18.4142 14.25 18 14.25ZM15.75 15C15.75 13.7574 16.7574 12.75 18 12.75C19.2426 12.75 20.25 13.7574 20.25 15C20.25 16.2426 19.2426 17.25 18 17.25C16.7574 17.25 15.75 16.2426 15.75 15Z" fill="currentColor"></path>
    <path fill-rule="evenodd" clip-rule="evenodd" d="M18 8.25C17.5858 8.25 17.25 8.58579 17.25 9C17.25 9.41421 17.5858 9.75 18 9.75C18.4142 9.75 18.75 9.41421 18.75 9C18.75 8.58579 18.4142 8.25 18 8.25ZM15.75 9C15.75 7.75736 16.7574 6.75 18 6.75C19.2426 6.75 20.25 7.75736 20.25 9C20.25 10.2426 19.2426 11.25 18 11.25C16.7574 11.25 15.75 10.2426 15.75 9Z" fill="currentColor"></path>
    <path fill-rule="evenodd" clip-rule="evenodd" d="M18 2.25C17.5858 2.25 17.25 2.58579 17.25 3C17.25 3.41421 17.5858 3.75 18 3.75C18.4142 3.75 18.75 3.41421 18.75 3C18.75 2.58579 18.4142 2.25 18 2.25ZM15.75 3C15.75 1.75736 16.7574 0.75 18 0.75C19.2426 0.75 20.25 1.75736 20.25 3C20.25 4.24264 19.2426 5.25 18 5.25C16.7574 5.25 15.75 4.24264 15.75 3Z" fill="currentColor"></path>
    <path fill-rule="evenodd" clip-rule="evenodd" d="M6 14.25C5.58579 14.25 5.25 14.5858 5.25 15C5.25 15.4142 5.58579 15.75 6 15.75C6.41421 15.75 6.75 15.4142 6.75 15C6.75 14.5858 6.41421 14.25 6 14.25ZM3.75 15C3.75 13.7574 4.75736 12.75 6 12.75C7.24264 12.75 8.25 13.7574 8.25 15C8.25 16.2426 7.24264 17.25 6 17.25C4.75736 17.25 3.75 16.2426 3.75 15Z" fill="currentColor"></path>
    <path fill-rule="evenodd" clip-rule="evenodd" d="M6 8.25C5.58579 8.25 5.25 8.58579 5.25 9C5.25 9.41421 5.58579 9.75 6 9.75C6.41421 9.75 6.75 9.41421 6.75 9C6.75 8.58579 6.41421 8.25 6 8.25ZM3.75 9C3.75 7.75736 4.75736 6.75 6 6.75C7.24264 6.75 8.25 7.75736 8.25 9C8.25 10.2426 7.24264 11.25 6 11.25C4.75736 11.25 3.75 10.2426 3.75 9Z" fill="currentColor"></path>
    <path fill-rule="evenodd" clip-rule="evenodd" d="M6 2.25C5.58579 2.25 5.25 2.58579 5.25 3C5.25 3.41421 5.58579 3.75 6 3.75C6.41421 3.75 6.75 3.41421 6.75 3C6.75 2.58579 6.41421 2.25 6 2.25ZM3.75 3C3.75 1.75736 4.75736 0.75 6 0.75C7.24264 0.75 8.25 1.75736 8.25 3C8.25 4.24264 7.24264 5.25 6 5.25C4.75736 5.25 3.75 4.24264 3.75 3Z" fill="currentColor"></path>
  </symbol>
  <symbol fill="none" xmlns="http://www.w3.org/2000/svg" viewBox="0 0 24 24" id="logout">
    <path d="M1.89 0H14.46C17.19 1.34 16.35 5.02 16.23 8.18C16.2167 8.52 16.0433 8.65667 15.71 8.59L15.01 8.46C14.8803 8.43449 14.7635 8.36467 14.6795 8.26252C14.5956 8.16036 14.5498 8.03221 14.55 7.9L14.49 2.49C14.49 2.29109 14.411 2.10032 14.2703 1.95967C14.1297 1.81902 13.9389 1.74 13.74 1.74L2.24 1.75C2.10652 1.75262 1.97938 1.80645 1.8859 1.89994C1.79241 1.99342 1.74003 2.11911 1.74 2.25L1.75 21.75C1.75 21.8853 1.80268 22.015 1.89645 22.1106C1.99021 22.2063 2.11739 22.26 2.25 22.26L14 22.25C14.3333 22.25 14.5 22.0833 14.5 21.75V16.25C14.4889 16.0499 14.5553 15.8531 14.6854 15.7006C14.8155 15.5481 14.9993 15.4516 15.1987 15.431C15.3981 15.4104 15.5978 15.4674 15.7563 15.5901C15.9148 15.7128 16.02 15.8918 16.05 16.09C16.7433 19.4567 16.38 22.0933 14.96 24H1.54L0 22.12V1.53L1.89 0Z" fill="currentColor"></path>
    <path d="M24.0001 11.6202V12.5202L19.3601 17.0802C19.2787 17.161 19.1821 17.2249 19.076 17.2684C18.9699 17.3118 18.8562 17.334 18.7416 17.3335C18.6269 17.333 18.5134 17.31 18.4076 17.2657C18.3019 17.2214 18.2059 17.1567 18.1251 17.0752C18.0443 16.9938 17.9804 16.8973 17.9369 16.7912C17.8935 16.685 17.8713 16.5714 17.8718 16.4567C17.8723 16.342 17.8953 16.2286 17.9396 16.1228C17.984 16.017 18.0487 15.921 18.1301 15.8402L20.4901 13.4602C20.5427 13.4099 20.5789 13.3448 20.5937 13.2735C20.6086 13.2021 20.6014 13.128 20.5733 13.0608C20.5451 12.9937 20.4972 12.9366 20.4359 12.8972C20.3747 12.8578 20.3029 12.838 20.2301 12.8402L6.48009 12.8802C6.21342 12.8802 6.08342 12.7469 6.09009 12.4802L6.10009 11.6902C6.10139 11.6141 6.11768 11.5389 6.14804 11.469C6.1784 11.3992 6.22222 11.3359 6.27701 11.283C6.3318 11.2301 6.39648 11.1885 6.46736 11.1605C6.53823 11.1326 6.61392 11.1189 6.69009 11.1202L20.4301 11.1502C20.478 11.1517 20.5248 11.1385 20.5646 11.1122C20.6043 11.086 20.6353 11.048 20.6535 11.003C20.6718 10.9579 20.6764 10.908 20.6669 10.8594C20.6574 10.8109 20.6341 10.7659 20.6001 10.7302L18.0501 8.11023C17.8863 7.94442 17.8014 7.72745 17.814 7.50706C17.8266 7.28666 17.9358 7.0809 18.1175 6.93503C18.2992 6.78916 18.5385 6.71514 18.7827 6.72924C19.027 6.74334 19.2563 6.84442 19.4201 7.01023L24.0001 11.6202Z" fill="currentColor"></path>
  </symbol>
  <symbol fill="none" xmlns="http://www.w3.org/2000/svg" viewBox="0 0 24 24" id="mail">
    <path fill-rule="evenodd" clip-rule="evenodd" d="M4.125 5.25C3.50368 5.25 3 5.75368 3 6.375V17.625C3 18.2463 3.50368 18.75 4.125 18.75H19.875C20.4963 18.75 21 18.2463 21 17.625V6.375C21 5.75368 20.4963 5.25 19.875 5.25H4.125ZM1.5 6.375C1.5 4.92525 2.67525 3.75 4.125 3.75H19.875C21.3247 3.75 22.5 4.92525 22.5 6.375V17.625C22.5 19.0747 21.3247 20.25 19.875 20.25H4.125C2.67525 20.25 1.5 19.0747 1.5 17.625V6.375Z" fill="currentColor"></path>
    <path fill-rule="evenodd" clip-rule="evenodd" d="M4.65802 7.03958C4.91232 6.71262 5.38353 6.65372 5.71049 6.90802L12 11.7999L18.2896 6.90802C18.6165 6.65372 19.0877 6.71262 19.342 7.03958C19.5964 7.36654 19.5375 7.83775 19.2105 8.09205L12.4605 13.342C12.1897 13.5527 11.8104 13.5527 11.5396 13.342L4.78958 8.09205C4.46262 7.83775 4.40372 7.36654 4.65802 7.03958Z" fill="currentColor"></path>
  </symbol>
</svg>