<svg width="149" height="198" viewBox="0 0 149 198" fill="none" xmlns="http://www.w3.org/2000/svg">
<path d="M40.2178 36.2617C40.2977 37.625 40.4011 38.9867 40.5278 40.3467C40.5444 40.5367 40.4578 40.6317 40.2678 40.6317C34.4411 40.6617 28.6161 40.6716 22.7927 40.6617C21.7327 40.6567 20.7128 40.9117 20.6177 42.0716C20.4144 44.4984 20.4744 47.2334 20.7977 50.2767C21.4377 56.3116 28.3127 61.2217 33.5778 64.9667C37.3478 67.6517 39.6127 70.5217 41.5527 74.4967C41.585 74.5643 41.6286 74.6255 41.6813 74.6778C41.7079 74.7043 41.7369 74.7285 41.7679 74.7501C41.8604 74.8146 41.9681 74.854 42.0807 74.8646C42.1934 74.8751 42.307 74.8564 42.4107 74.8104C42.5144 74.7644 42.6047 74.6925 42.6727 74.6017C44.7778 71.8016 43.1628 67.9967 40.8928 65.7966C39.7411 64.6802 38.4496 63.6083 37.1289 62.5121C32.6296 58.7776 27.7906 54.7612 26.9827 47.7417C26.9764 47.682 26.9828 47.6216 27.0012 47.5644C27.0103 47.5364 27.0223 47.5093 27.0368 47.4837C27.0518 47.4574 27.0696 47.4326 27.09 47.4099C27.1299 47.3652 27.179 47.3293 27.2337 47.3047C27.2884 47.28 27.3477 47.2671 27.4078 47.2667H41.5378C41.6877 47.2667 41.8094 47.3233 41.9028 47.4366C43.0694 48.81 43.9761 50.3083 44.6227 51.9316C45.1028 53.125 45.4594 54.8817 45.6927 57.2016C46.4227 64.4316 47.1744 71.665 47.9478 78.9017C48.3777 82.9117 51.4078 84.5666 55.1127 86.4216C62.5978 90.1667 71.0828 90.8767 79.3228 90.2917C86.5378 89.7817 92.5228 87.9717 98.3577 84.0666C100.201 82.8334 101.243 81.1084 101.483 78.8917C102.359 70.7683 103.238 62.645 104.118 54.5217C104.369 52.2013 105.412 50.5897 106.534 48.8557C106.819 48.4151 107.109 47.9667 107.393 47.4967C107.419 47.4523 107.452 47.4126 107.491 47.3793C107.514 47.36 107.538 47.3428 107.564 47.328C107.635 47.2876 107.716 47.2665 107.798 47.2667H122.168C122.213 47.2663 122.258 47.2756 122.299 47.294C122.323 47.3047 122.345 47.3181 122.365 47.3341C122.38 47.3459 122.394 47.3592 122.407 47.3736C122.438 47.4077 122.46 47.4477 122.474 47.4914C122.488 47.535 122.493 47.581 122.488 47.6267C121.928 52.2066 119.966 55.9433 116.603 58.8367C116.035 59.3251 115.345 59.874 114.59 60.4737C110.108 64.037 103.367 69.3954 106.718 74.5267C106.787 74.6333 106.883 74.7196 106.997 74.7767C107.11 74.8338 107.237 74.8596 107.364 74.8514C107.491 74.8434 107.613 74.8015 107.718 74.7303C107.823 74.6592 107.908 74.5613 107.963 74.4466C108.949 72.3833 110.159 70.49 111.593 68.7667C113.326 66.6859 115.596 65.0608 117.979 63.3544C117.983 63.3516 117.987 63.3488 117.991 63.346C118.45 63.0172 118.913 62.6854 119.378 62.3467C121.348 60.9033 123.326 59.1733 125.313 57.1567C129.128 53.2767 129.078 47.6267 128.873 42.4216C128.829 41.2417 128.216 40.6517 127.033 40.6517H109.178C109.014 40.6517 108.939 40.57 108.953 40.4067C109.063 39.0267 109.154 37.6467 109.228 36.2667C109.328 34.3266 108.568 33.9717 106.753 34.0017C85.3594 34.385 63.9644 34.385 42.5677 34.0017C40.8228 33.9717 40.1127 34.4516 40.2178 36.2617Z" fill="white"/>
<path d="M68.0627 92.5167L68.0728 111.277C68.0728 111.487 67.9677 111.595 67.7578 111.602C67.3622 111.618 66.8873 111.609 66.3715 111.6C64.4354 111.565 61.9229 111.519 60.8727 112.712C58.6328 115.255 56.4811 117.91 54.4177 120.677C54.3964 120.705 54.3787 120.736 54.3651 120.768C54.3531 120.797 54.3442 120.827 54.3386 120.857C54.3265 120.923 54.3298 120.99 54.3482 121.054C54.3666 121.118 54.3997 121.177 54.4447 121.226C54.4897 121.275 54.5455 121.313 54.6077 121.337C54.8144 121.417 55.0861 121.457 55.4227 121.457C68.306 121.51 81.2861 121.525 94.3627 121.502C94.8494 121.502 95.056 121.262 94.9827 120.782C94.936 120.495 94.7194 120.108 94.3327 119.622C92.5927 117.448 90.7961 115.32 88.9427 113.237C87.317 111.409 85.1909 111.491 83.059 111.573C82.5551 111.593 82.0508 111.613 81.5527 111.607C81.3394 111.603 81.2327 111.497 81.2327 111.287L81.2377 92.3767C81.2374 92.3154 81.2241 92.2547 81.199 92.1988C81.1738 92.1429 81.1372 92.0929 81.0915 92.0519C81.0458 92.011 80.9921 91.98 80.9338 91.961C80.8754 91.942 80.8138 91.9354 80.7527 91.9418C76.7294 92.3717 72.7044 92.3784 68.6777 91.9618C68.2677 91.9184 68.0627 92.1034 68.0627 92.5167Z" fill="white"/>
<path fill-rule="evenodd" clip-rule="evenodd" d="M40.5278 40.3467C40.4011 38.9867 40.2977 37.625 40.2178 36.2617C40.1127 34.4516 40.8228 33.9717 42.5677 34.0017C63.9644 34.385 85.3594 34.385 106.753 34.0017C108.568 33.9717 109.328 34.3266 109.228 36.2667C109.154 37.6467 109.063 39.0267 108.953 40.4067C108.939 40.57 109.014 40.6517 109.178 40.6517H127.033C128.216 40.6517 128.829 41.2417 128.873 42.4216C129.078 47.6267 129.128 53.2767 125.313 57.1567C123.326 59.1733 121.348 60.9033 119.378 62.3467C118.913 62.6854 118.45 63.0172 117.991 63.346L117.979 63.3544C115.596 65.0608 113.326 66.6859 111.593 68.7667C110.159 70.49 108.949 72.3833 107.963 74.4466C107.908 74.5613 107.823 74.6592 107.718 74.7303C107.613 74.8015 107.491 74.8434 107.364 74.8514C107.237 74.8596 107.11 74.8338 106.997 74.7767C106.883 74.7196 106.787 74.6333 106.718 74.5267C103.367 69.3954 110.108 64.037 114.59 60.4737C115.345 59.874 116.035 59.3251 116.603 58.8367C119.966 55.9433 121.928 52.2066 122.488 47.6267C122.493 47.581 122.488 47.535 122.474 47.4914C122.46 47.4477 122.438 47.4077 122.407 47.3736C122.394 47.3592 122.38 47.3459 122.365 47.3341C122.345 47.3181 122.323 47.3047 122.299 47.294C122.258 47.2756 122.213 47.2663 122.168 47.2667H107.798C107.716 47.2665 107.635 47.2876 107.564 47.328C107.538 47.3428 107.514 47.36 107.491 47.3793C107.452 47.4126 107.419 47.4523 107.393 47.4967C107.109 47.9667 106.819 48.4151 106.534 48.8557C105.412 50.5897 104.369 52.2013 104.118 54.5217C103.238 62.645 102.359 70.7683 101.483 78.8917C101.243 81.1084 100.201 82.8334 98.3577 84.0666C92.5228 87.9717 86.5378 89.7817 79.3228 90.2917C71.0828 90.8767 62.5978 90.1667 55.1127 86.4216C51.4078 84.5666 48.3777 82.9117 47.9478 78.9017C47.1744 71.665 46.4227 64.4316 45.6927 57.2016C45.4594 54.8817 45.1028 53.125 44.6227 51.9316C43.9761 50.3083 43.0694 48.81 41.9028 47.4366C41.8094 47.3233 41.6877 47.2667 41.5378 47.2667H27.4078C27.3477 47.2671 27.2884 47.28 27.2337 47.3047C27.179 47.3293 27.1299 47.3652 27.09 47.4099C27.0696 47.4326 27.0518 47.4574 27.0368 47.4837C27.0223 47.5093 27.0103 47.5364 27.0012 47.5644C26.9828 47.6216 26.9764 47.682 26.9827 47.7417C27.7906 54.7612 32.6296 58.7776 37.1289 62.5121C38.4496 63.6083 39.7411 64.6802 40.8928 65.7966C43.1628 67.9967 44.7778 71.8016 42.6727 74.6017C42.6047 74.6925 42.5144 74.7644 42.4107 74.8104C42.307 74.8564 42.1934 74.8751 42.0807 74.8646C41.9681 74.854 41.8604 74.8146 41.7679 74.7501C41.7369 74.7285 41.7079 74.7043 41.6813 74.6778C41.6286 74.6255 41.585 74.5643 41.5527 74.4967C39.6127 70.5217 37.3478 67.6517 33.5778 64.9667C28.3127 61.2217 21.4377 56.3116 20.7977 50.2767C20.4744 47.2334 20.4144 44.4984 20.6177 42.0716C20.7128 40.9117 21.7327 40.6567 22.7927 40.6617C28.6161 40.6716 34.4411 40.6617 40.2678 40.6317C40.4578 40.6317 40.5444 40.5367 40.5278 40.3467ZM68.0728 111.277L68.0627 92.5167C68.0627 92.1034 68.2677 91.9184 68.6777 91.9618C72.7044 92.3784 76.7294 92.3717 80.7527 91.9418C80.8138 91.9354 80.8754 91.942 80.9338 91.961C80.9921 91.98 81.0458 92.011 81.0915 92.0519C81.1372 92.0929 81.1738 92.1429 81.199 92.1988C81.2241 92.2547 81.2374 92.3154 81.2377 92.3767L81.2327 111.287C81.2327 111.497 81.3394 111.603 81.5527 111.607C82.0508 111.613 82.5551 111.593 83.059 111.573C85.1909 111.491 87.317 111.409 88.9427 113.237C90.7961 115.32 92.5927 117.448 94.3327 119.622C94.7194 120.108 94.936 120.495 94.9827 120.782C95.056 121.262 94.8494 121.502 94.3627 121.502C81.2861 121.525 68.306 121.51 55.4227 121.457C55.0861 121.457 54.8144 121.417 54.6077 121.337C54.5455 121.313 54.4897 121.275 54.4447 121.226C54.3997 121.177 54.3666 121.118 54.3482 121.054C54.3298 120.99 54.3265 120.923 54.3386 120.857C54.3442 120.827 54.3531 120.797 54.3651 120.768C54.3787 120.736 54.3964 120.705 54.4177 120.677C56.4811 117.91 58.6328 115.255 60.8727 112.712C61.9229 111.519 64.4354 111.565 66.3715 111.6C66.8873 111.609 67.3622 111.618 67.7578 111.602C67.9677 111.595 68.0728 111.487 68.0728 111.277Z" fill="white"/>
<path fill-rule="evenodd" clip-rule="evenodd" d="M0 156.211V0H149V156.395H121.232L74.0429 198L27.6622 156.211H0ZM10.0229 10.0135H74.0429V10.0253H138.939V146.37H117.406L74.7038 184.589L31.4729 146.197H10.0229V10.0135Z" fill="white"/>
</svg>
