<svg width="149" height="198" viewBox="0 0 149 198" fill="none" xmlns="http://www.w3.org/2000/svg">
<path fill-rule="evenodd" clip-rule="evenodd" d="M118.778 56.2866C116.443 57.0632 113.91 57.9058 111.948 59.5513C111.765 59.7034 111.614 59.678 111.495 59.4751L109.595 56.2366C109.553 56.165 109.524 56.0913 109.508 56.0159C109.487 55.9167 109.489 55.8145 109.514 55.7087C110.076 53.3401 110.156 50.9478 109.753 48.5315C109.73 48.4009 109.663 48.2817 109.563 48.1941C109.464 48.1064 109.337 48.0554 109.204 48.0493C107.182 47.958 105.101 47.9934 102.96 48.156C102.124 48.2202 101.521 48.5383 101.152 49.1101C101.02 49.3123 100.842 49.4792 100.632 49.5967C100.422 49.7144 100.188 49.7791 99.9478 49.7852C96.4694 49.8767 92.9301 50.083 89.3297 50.4045C88.9402 50.4385 88.5754 50.5178 88.2168 50.5957C87.2844 50.7983 86.3939 50.9917 85.2197 50.3538C85.1499 50.3157 85.0725 50.2937 84.9934 50.2893C84.9143 50.2849 84.8354 50.2983 84.7625 50.3284L83.1418 50.9883C83.0951 51.0068 83.0465 51.0188 82.9973 51.0242C82.9091 51.0337 82.8191 51.0217 82.7354 50.9883L81.1453 50.3435C81.0537 50.3079 80.9521 50.3079 80.8607 50.3435L79.0267 51.0593C78.942 51.0918 78.8489 51.0898 78.7676 51.0542L76.9945 50.3132C76.8048 50.2319 76.6305 50.2573 76.4713 50.3894C75.4213 51.2522 74.4019 51.2454 73.4128 50.3689C73.3389 50.3042 73.248 50.2617 73.1515 50.2473C73.0549 50.2329 72.9569 50.2471 72.8693 50.2878L71.1115 51.0947C71.0198 51.1375 70.9192 51.1589 70.8171 51.157C70.7151 51.1553 70.6143 51.1306 70.5221 51.0847L68.932 50.2827C68.749 50.1914 68.5679 50.1948 68.3883 50.293L67.0217 51.0593C66.9396 51.1055 66.8468 51.1299 66.7524 51.1299C66.6581 51.1299 66.5654 51.1055 66.4832 51.0593L65.0048 50.2522C64.9271 50.2087 64.8394 50.1858 64.7495 50.1858C64.6598 50.1858 64.571 50.2087 64.4917 50.2522L62.9828 51.0796C62.7965 51.1846 62.6119 51.1846 62.4291 51.0796L60.9913 50.2625C60.8783 50.1973 60.7653 50.1746 60.6522 50.1946C60.5891 50.2056 60.526 50.23 60.4629 50.2676L59.4926 50.8511C59.2164 51.0171 58.8938 51.0894 58.5725 51.0574C58.2513 51.0254 57.9486 50.8909 57.7094 50.6736C57.3639 50.3623 56.9625 50.2048 56.5052 50.2014C56.3428 50.2014 56.2039 50.259 56.0887 50.374C55.6721 50.8005 55.1641 51.0457 54.5646 51.1101C54.53 51.1138 54.4954 51.1143 54.4609 51.1116C54.411 51.1074 54.3617 51.0964 54.3146 51.0786C54.2788 51.0652 54.2448 51.0479 54.2129 51.0273C54.1741 51.0022 54.1385 50.9719 54.1074 50.9375C53.7111 50.4907 53.22 50.2422 52.634 50.1914C52.5715 50.1855 52.5087 50.189 52.4474 50.2009C52.4236 50.2056 52.4001 50.2117 52.377 50.219C52.2941 50.2451 52.2174 50.2876 52.1514 50.3435C51.1963 51.1455 50.2327 51.1438 49.2606 50.3386C49.1252 50.2268 48.9677 50.1711 48.7882 50.1711C43.7688 50.1506 38.7544 50.0256 33.7451 49.7954C32.8137 49.7515 31.4742 49.5569 29.7266 49.2117C28.1686 48.9004 26.5835 48.7515 24.9713 48.7651C22.8375 48.7854 19.9265 53.3535 19.1085 54.9424C18.8884 55.3652 19.0171 55.5769 19.4946 55.5769L64.4713 55.7239C64.5682 55.7253 64.6622 55.7573 64.7397 55.8154C64.8173 55.8738 64.8743 55.9548 64.9026 56.0476C64.9174 56.0962 64.924 56.1467 64.9221 56.197C64.9205 56.2424 64.9122 56.2876 64.8971 56.3308C64.8652 56.4224 64.8051 56.5012 64.7253 56.5564C64.2749 56.8611 63.6416 57.0166 62.8253 57.0234C56.78 57.0867 50.7303 57.0571 44.6805 57.0276C36.1796 56.9858 27.6786 56.9441 19.1898 57.1604C19.0341 57.1672 18.9392 57.2468 18.9053 57.3989C18.2347 60.4546 17.9366 63.5322 18.0112 66.6321C18.0331 67.5439 18.1891 68.55 18.3495 69.5852C18.524 70.7112 18.7039 71.8713 18.7224 72.9819C18.7292 73.2864 18.885 73.4387 19.1898 73.4387C42.9458 73.4453 66.5205 73.447 89.9139 73.4438C91.8496 73.4438 93.6429 73.1292 95.1925 72.2815L95.3936 72.1719C97.4325 71.0579 98.8481 70.2844 101.279 70.2205C102.776 70.1799 104.271 70.1919 105.765 70.2561C105.941 70.2664 106.11 70.3086 106.273 70.3831C106.71 70.5828 106.816 70.8872 106.593 71.2966C106.534 71.4058 106.445 71.4958 106.337 71.5562C106.229 71.6165 106.106 71.6443 105.983 71.6367L105.789 71.6265C103.264 71.4907 100.304 71.3315 97.9817 72.4895C97.8011 72.5798 97.6224 72.6699 97.4452 72.7593C95.2045 73.8892 93.199 74.9004 90.5388 74.9004C66.6948 74.8767 42.8729 74.8735 19.073 74.8904C19.0138 74.8904 18.9553 74.9019 18.9008 74.9246C18.8462 74.947 18.7966 74.98 18.755 75.0215C18.7135 75.063 18.6807 75.1123 18.6584 75.1665C18.6364 75.2207 18.6252 75.2786 18.6259 75.3369C18.6293 76.3997 18.951 77.3994 19.5912 78.3369C21.3557 80.9119 23.1509 83.4634 24.9764 85.9912C26.3359 87.8755 30.229 87.4153 32.9611 87.092L33.3031 87.052C33.4827 87.0317 33.6384 86.959 33.7705 86.8337L34.5072 86.1384C34.6359 86.02 34.7629 86.0234 34.8882 86.1484C36.0364 87.333 37.2235 87.3752 38.4496 86.2754C38.5161 86.2161 38.6016 86.1821 38.6903 86.1804C38.7789 86.1785 38.8649 86.2087 38.9323 86.2654C40.1108 87.2634 41.2997 87.2974 42.4987 86.3667C42.5385 86.3362 42.5831 86.313 42.6305 86.2979C42.6693 86.2856 42.7098 86.2788 42.751 86.2778C42.8425 86.2761 42.9321 86.3037 43.0067 86.3567C44.3851 87.3279 45.6976 87.2905 46.944 86.2449C47.0122 86.1887 47.0981 86.1587 47.1859 86.1606C47.2738 86.1626 47.3574 86.196 47.4215 86.2551C48.6578 87.3921 49.8364 87.3667 50.9575 86.179C50.9841 86.1506 51.0162 86.1282 51.0519 86.1125C51.0875 86.0969 51.1259 86.0886 51.1648 86.0881C51.2036 86.0876 51.2422 86.095 51.2782 86.1099C51.3141 86.1245 51.3468 86.1462 51.3741 86.1738C52.5054 87.3176 53.7061 87.3921 54.9761 86.3972C55.0345 86.3521 55.1055 86.3257 55.1797 86.321C55.2539 86.3167 55.3281 86.3342 55.3927 86.3718C56.3376 86.9202 57.5874 87.1992 59.1421 87.2095C66.4646 87.2668 73.7888 87.2603 81.1147 87.1892C82.964 87.1738 84.1427 87.6257 85.804 88.7981C87.394 89.9199 88.5779 90.4783 90.6608 90.4629C92.4728 90.4426 94.2865 90.4377 96.1019 90.4478C98.2983 90.4609 99.0493 89.8711 100.258 88.9224C100.438 88.7805 100.629 88.6306 100.837 88.4734C101.406 88.04 102.029 87.8101 102.706 87.783C105.363 87.6763 108.239 88.3311 107.822 91.676C107.683 92.7827 107.694 93.8792 107.853 94.9653C108.079 96.533 108.992 98.2151 109.857 99.8101C110.213 100.467 110.561 101.108 110.85 101.721C110.935 101.901 110.981 102.097 110.986 102.296C110.991 102.495 110.955 102.693 110.88 102.877C110.805 103.062 110.693 103.229 110.551 103.367C110.408 103.507 110.239 103.615 110.053 103.686L106.771 104.929C106.699 104.956 106.634 104.999 106.579 105.053C106.525 105.107 106.483 105.172 106.456 105.244C106.009 106.401 106.019 107.629 107.187 108.381C107.831 108.797 108.325 109.003 108.671 109C113.429 108.98 118.19 108.976 122.952 108.99C123.603 108.992 124.332 108.948 125.097 108.902C126.319 108.828 127.631 108.749 128.865 108.843C130.882 108.995 131.873 108.355 131.939 106.3C132.057 102.824 132.003 99.5859 131.776 96.5845C131.722 95.8704 131.494 95.2056 131.091 94.5896C127.798 89.5544 124.567 84.4768 121.397 79.3572C120.025 77.1492 120.031 72.936 121.443 70.8501C122.134 69.8247 123.043 68.9888 124.171 68.3425C124.313 68.2634 124.475 68.2332 124.633 68.2563C126.051 68.4492 128.764 68.4033 128.972 66.4595C129.201 64.3428 128.261 64.0635 126.376 64.0281C123.484 63.9807 120.586 63.9639 117.683 63.9773C117.632 63.9771 117.581 63.9644 117.535 63.9397C117.489 63.915 117.45 63.8796 117.422 63.8364C117.393 63.7932 117.375 63.7437 117.371 63.6921C117.366 63.6406 117.374 63.5886 117.394 63.5408L120.025 57.333C120.089 57.1855 120.108 57.0229 120.08 56.865C120.053 56.7068 119.98 56.5601 119.871 56.4421C119.826 56.3945 119.777 56.3523 119.723 56.3164C119.644 56.2634 119.557 56.2239 119.463 56.2C119.363 56.1743 119.259 56.1675 119.157 56.1792C119.1 56.1858 119.044 56.1982 118.989 56.2163L118.778 56.2866ZM115.433 61.678L114.61 60.8862C114.583 60.8596 114.562 60.8279 114.549 60.7932C114.538 60.7642 114.532 60.7334 114.531 60.7019C114.531 60.6663 114.537 60.6316 114.551 60.5994C114.563 60.5686 114.581 60.54 114.605 60.5156L114.671 60.4446C115.205 59.8914 115.776 59.4177 116.26 59.1272C116.743 58.8369 117.098 58.7539 117.246 58.8965L117.328 58.9775C117.475 59.1216 117.404 59.479 117.13 59.9709C116.857 60.4629 116.404 61.0496 115.87 61.6018L115.804 61.6677C115.756 61.7178 115.69 61.7471 115.62 61.7488C115.551 61.7507 115.484 61.7253 115.433 61.678ZM27.536 59.5591C28.04 59.7002 28.3217 59.8862 28.3191 60.0762C28.3177 60.1702 28.2467 60.2622 28.1099 60.3472C27.9731 60.4321 27.7733 60.5081 27.522 60.571C27.2705 60.634 26.9724 60.6826 26.6447 60.7141C26.3169 60.7454 25.9658 60.759 25.6116 60.7542C24.8962 60.7441 24.2112 60.6592 23.7072 60.5178C23.2031 60.3767 22.9215 60.1907 22.9242 60.0007C22.9254 59.907 22.9966 59.8147 23.1333 59.7297C23.27 59.645 23.4698 59.5688 23.7213 59.5059C23.8649 59.47 24.0238 59.4385 24.1947 59.4124C24.323 59.3928 24.458 59.3762 24.5985 59.3628C24.8042 59.3433 25.0189 59.3306 25.2378 59.325C25.3679 59.3218 25.4995 59.321 25.6316 59.3228C26.347 59.3328 27.0321 59.4177 27.536 59.5591ZM26.1927 63.1379C26.3242 63.2751 26.3959 63.4587 26.3918 63.6484L26.3345 66.3887C26.3325 66.4827 26.312 66.5754 26.2742 66.6614C26.2529 66.7097 26.2264 66.7556 26.1953 66.7979C26.171 66.8308 26.1438 66.8618 26.114 66.8904C26.0814 66.9216 26.046 66.9495 26.0083 66.9739C25.9675 67.0005 25.924 67.0227 25.8784 67.0405C25.7908 67.0747 25.6973 67.0913 25.6033 67.0894L25.5118 67.0874C25.3219 67.0835 25.1414 67.0042 25.0098 66.8672C24.9493 66.8042 24.9016 66.7314 24.8679 66.6528C24.8284 66.5603 24.8085 66.4595 24.8107 66.3569L24.8682 63.6165C24.8701 63.5225 24.8906 63.4299 24.9283 63.3438C24.9429 63.3105 24.96 63.2786 24.9792 63.2483C25.0101 63.1997 25.0468 63.155 25.0885 63.115C25.1564 63.0498 25.2365 62.9988 25.3241 62.9646C25.4117 62.9304 25.5052 62.9141 25.5992 62.916L25.6908 62.918C25.8807 62.9219 26.0613 63.001 26.1927 63.1379ZM27.5131 69.5317C28.0308 69.6692 28.3225 69.8589 28.3242 70.0596C28.326 70.26 28.0376 70.4551 27.5225 70.6013C27.0073 70.7476 26.3076 70.8335 25.5774 70.8398C24.8472 70.8462 24.1461 70.7725 23.6285 70.6353C23.1108 70.498 22.8191 70.3081 22.8174 70.1077C22.8156 69.907 23.104 69.7122 23.6191 69.5657C24.1343 69.4194 24.834 69.3337 25.5642 69.3274C26.1506 69.322 26.7181 69.3687 27.187 69.4583C27.302 69.4802 27.4111 69.5046 27.5131 69.5317ZM96.4829 77.8342C97.3416 80.5347 96.5184 82.9204 95.5989 85.3618C95.566 85.4541 95.5627 85.5544 95.5895 85.6489C95.6162 85.7432 95.6716 85.8269 95.7482 85.8882C95.8247 85.9497 95.9185 85.9856 96.0165 85.9915C96.1145 85.9971 96.2118 85.9722 96.2949 85.9202L101.863 82.3367C101.891 82.3179 101.923 82.3069 101.956 82.3044C101.99 82.302 102.023 82.3081 102.053 82.3225C102.073 82.3318 102.091 82.3442 102.106 82.3594C102.115 82.3677 102.122 82.3767 102.129 82.3862C102.148 82.4136 102.16 82.4456 102.163 82.4788C102.336 84.2349 99.8462 85.8337 98.5303 86.6562C97.0238 87.5999 95.2374 87.575 93.5081 87.5508C93.3304 87.5483 93.1534 87.5459 92.9774 87.5444H92.9631C90.1703 87.519 87.8917 87.4983 87.7802 84.2095C87.726 82.5583 87.7108 80.8799 87.7345 79.1743C87.7411 78.7461 87.9163 78.3376 88.2222 78.0369C88.5281 77.7358 88.9404 77.5667 89.3704 77.5654L96.1019 77.5552C96.2216 77.5552 96.3158 77.5908 96.3848 77.6624C96.427 77.7061 96.4597 77.7634 96.4829 77.8342ZM115.369 79.2549C115.649 79.4585 115.887 79.7156 116.068 80.011L122.943 91.2202C123.31 91.8171 123.423 92.5349 123.26 93.2156C123.096 93.8962 122.669 94.4841 122.071 94.8499L121.387 95.2688C121.091 95.45 120.762 95.571 120.42 95.6255C120.077 95.6797 119.727 95.6658 119.39 95.585C119.052 95.5042 118.734 95.3574 118.454 95.1538C118.173 94.95 117.935 94.6931 117.754 94.3975L110.879 83.1885C110.513 82.5916 110.399 81.8738 110.563 81.1931C110.726 80.5125 111.154 79.9246 111.751 79.5588L112.435 79.1396C112.731 78.9587 113.06 78.8374 113.402 78.7832C113.745 78.729 114.095 78.7427 114.432 78.8237C114.641 78.8735 114.842 78.9485 115.031 79.0464C115.148 79.1072 115.261 79.1768 115.369 79.2549ZM100.847 80.5549C100.789 81.2419 100.278 81.8171 99.3127 82.2808C99.2308 82.3201 99.1403 82.3381 99.0494 82.3333C98.9587 82.3284 98.8706 82.3005 98.7936 82.2522C98.7164 82.2041 98.6528 82.1372 98.6086 82.0579C98.5643 81.9785 98.5409 81.8894 98.5405 81.7986L98.5354 80.4382C98.5352 80.3667 98.5426 80.2959 98.5576 80.2266C98.5714 80.1628 98.5916 80.1003 98.6178 80.0403C98.6726 79.9148 98.7531 79.8022 98.8539 79.7095C98.9547 79.6169 99.0739 79.5464 99.2036 79.5022C99.2845 79.4746 99.3684 79.4578 99.4532 79.4519C99.5044 79.4485 99.5559 79.449 99.6073 79.4536C100.488 79.5312 100.901 79.8984 100.847 80.5549ZM129.153 100.372C129.203 100.49 129.228 100.616 129.229 100.743L129.244 105.159C129.244 105.286 129.22 105.413 129.171 105.53C129.123 105.648 129.052 105.755 128.962 105.846C128.883 105.925 128.791 105.99 128.69 106.038C128.676 106.045 128.662 106.051 128.648 106.057C128.531 106.106 128.404 106.132 128.277 106.132L128.196 106.132C128.068 106.133 127.942 106.108 127.824 106.06C127.706 106.011 127.599 105.94 127.509 105.851C127.418 105.761 127.346 105.654 127.297 105.537C127.248 105.419 127.222 105.293 127.222 105.166L127.206 100.75C127.206 100.623 127.231 100.497 127.279 100.379C127.327 100.261 127.398 100.154 127.488 100.064C127.578 99.9734 127.685 99.9016 127.802 99.8523C127.869 99.8245 127.939 99.8042 128.01 99.7917C128.064 99.7825 128.118 99.7776 128.173 99.7773L128.255 99.7771C128.382 99.7766 128.508 99.8013 128.626 99.8496C128.744 99.8979 128.851 99.969 128.942 100.059C129.032 100.148 129.104 100.255 129.153 100.372Z" fill="white"/>
<path fill-rule="evenodd" clip-rule="evenodd" d="M0 0V156.211H27.6622L74.043 198L121.232 156.395H149V0H0ZM74.043 10.0134H10.0229V146.197H31.4729L74.7039 184.589L117.406 146.37H138.939V10.0254H74.043V10.0134Z" fill="white"/>
</svg>
