<svg width="149" height="198" viewBox="0 0 149 198" fill="none" xmlns="http://www.w3.org/2000/svg">
<path d="M61.8156 61.6707C62.3506 55.7158 67.5156 49.5657 73.8656 49.5156C74.0389 49.5125 74.1256 49.5974 74.1256 49.7708L74.1306 61.6758C74.1306 61.7419 74.1047 61.8057 74.0588 61.8525C74.0129 61.8994 73.9506 61.9258 73.8856 61.9258L62.0406 61.9207C62.0197 61.9207 62.0001 61.9192 61.9819 61.9165L61.9663 61.9136L61.9558 61.9111L61.9387 61.9062C61.9268 61.9023 61.9156 61.8977 61.9055 61.8921C61.8826 61.8796 61.8639 61.8633 61.8496 61.8428C61.8379 61.8259 61.8291 61.8064 61.8231 61.7842C61.8191 61.7693 61.8165 61.7529 61.8152 61.7356L61.8142 61.717V61.698L61.8156 61.6707Z" fill="white"/>
<path d="M87.9357 61.5908C87.2157 55.6558 82.4257 49.5859 75.9257 49.5208C75.7523 49.5176 75.6656 49.6042 75.6656 49.7808V61.6709C75.6656 61.7371 75.6925 61.8008 75.7404 61.8477C75.7487 61.8557 75.7574 61.8633 75.7666 61.8701C75.7889 61.8867 75.814 61.8997 75.8403 61.9082C75.866 61.9165 75.8931 61.9209 75.9207 61.9209H87.6406C87.682 61.9211 87.723 61.9126 87.761 61.8958C87.7988 61.8789 87.8328 61.854 87.8606 61.8228C87.8884 61.7917 87.9095 61.7549 87.9225 61.7151C87.9353 61.675 87.9398 61.6328 87.9357 61.5908Z" fill="white"/>
<path d="M61.8307 64.0408C62.7207 70.511 67.1807 74.9858 73.6106 75.9858C73.6749 75.9961 73.7406 75.9919 73.8032 75.9744C73.8657 75.9565 73.9238 75.9255 73.9733 75.8833C73.993 75.8665 74.0111 75.8479 74.0275 75.8279C74.0522 75.7979 74.0731 75.7646 74.0895 75.7292C74.1167 75.6702 74.1307 75.606 74.1306 75.5408L74.1256 63.8259C74.1256 63.626 74.0256 63.5259 73.8257 63.5259L62.2756 63.5308C61.9323 63.5308 61.7839 63.7009 61.8307 64.0408Z" fill="white"/>
<path d="M76.2107 75.9858C82.4457 74.9558 87.5156 70.3059 87.9006 63.8008C87.9027 63.7654 87.8975 63.73 87.8854 63.6968C87.8824 63.689 87.8793 63.6812 87.8756 63.6736L87.8665 63.6562C87.8611 63.6467 87.855 63.6377 87.8484 63.6289C87.8427 63.6213 87.8365 63.614 87.83 63.6072C87.8198 63.5964 87.8087 63.5867 87.7969 63.5779C87.7805 63.5654 87.7627 63.5552 87.7438 63.5469C87.7112 63.533 87.6761 63.5259 87.6406 63.5259L75.9106 63.5308C75.8793 63.5308 75.8486 63.5366 75.8201 63.5479C75.8097 63.552 75.7996 63.5566 75.7898 63.562C75.7695 63.5732 75.7506 63.5874 75.7339 63.604C75.687 63.6509 75.6606 63.7146 75.6606 63.7808L75.6707 75.5259C75.6705 75.5933 75.6851 75.6602 75.7133 75.7214C75.7415 75.7827 75.7827 75.8372 75.8341 75.8809C75.8855 75.9248 75.9458 75.9568 76.0109 75.9749C76.0758 75.9929 76.144 75.9968 76.2107 75.9858Z" fill="white"/>
<path fill-rule="evenodd" clip-rule="evenodd" d="M39.1371 82.4177C40.085 85.1233 41.0359 87.8376 40.4056 90.6758C40.3689 90.8325 40.1023 91.5259 39.6056 92.7559C38.7806 94.8059 39.7306 97.3657 40.9257 99.2458C43.2456 102.899 46.449 105.451 50.5356 106.901C52.3356 107.541 54.1189 108.231 55.8856 108.971C57.769 109.761 58.0452 111.938 58.29 113.868L58.33 114.18C58.3445 114.292 58.3591 114.403 58.3743 114.512C58.4012 114.706 58.4298 114.895 58.4618 115.077C58.4742 115.148 58.4871 115.217 58.5006 115.286C58.8656 117.151 59.6106 119.181 60.9307 120.266C66.7656 125.061 77.1956 124.836 84.1406 122.861C88.5306 121.606 90.8506 118.916 91.5457 114.541C91.5658 114.413 91.5848 114.279 91.6035 114.139C91.6237 113.989 91.6434 113.832 91.6637 113.671C91.868 112.049 92.1307 109.963 93.4355 109.166C94.1189 108.749 95.8356 108.093 98.5856 107.196C103.816 105.492 107.609 102.169 109.966 97.2258C110.846 95.3857 110.811 94.2559 109.971 92.2458C108.964 89.8357 108.889 87.4575 109.746 85.1108C114.402 72.3342 113.434 60.604 106.841 49.9209C99.9056 38.6758 87.6456 31.9158 74.4255 32.0007C50.1956 32.1509 32.4556 55.3809 38.0306 78.8757C38.3114 80.061 38.7239 81.2385 39.1371 82.4177ZM73.7906 77.5259C65.834 76.2991 61.2756 71.6975 60.1156 63.7207C60.0956 63.5908 60.0189 63.5242 59.8856 63.5208L56.0306 63.4407C55.9498 63.439 55.8702 63.4209 55.7964 63.3882C55.7584 63.3713 55.7222 63.3508 55.6885 63.3267C55.6567 63.304 55.6271 63.2783 55.6001 63.25C55.5443 63.1917 55.5007 63.1228 55.4717 63.0474C55.4563 63.0076 55.4452 62.9666 55.4384 62.9248C55.4323 62.8872 55.4297 62.8491 55.4307 62.8108C55.4506 62.1709 55.8606 61.864 56.6606 61.8909C57.7106 61.9209 58.7622 61.9209 59.8156 61.8909C59.9823 61.884 60.0773 61.7991 60.1006 61.6357C61.2939 53.6492 65.8723 49.0425 73.8356 47.8157C74.0122 47.7891 74.1006 47.6858 74.1006 47.5059L74.0806 44.0259C74.0791 43.8257 74.146 43.6311 74.2705 43.4739C74.3376 43.3892 74.4193 43.3179 74.5111 43.2632C74.5895 43.2166 74.6753 43.1819 74.7656 43.1609C75.0756 43.0874 75.3123 43.1941 75.4756 43.4807C75.569 43.6475 75.6189 43.9009 75.6256 44.2407C75.6422 45.3674 75.6539 46.4958 75.6606 47.6257C75.6606 47.679 75.6685 47.7251 75.6842 47.7642C75.7217 47.8569 75.8038 47.9089 75.9307 47.9209C83.3005 48.5508 88.9106 54.2407 89.4956 61.6208C89.5122 61.8108 89.6156 61.9058 89.8057 61.9058C90.8423 61.9158 91.9156 61.9092 93.0256 61.8857C93.6356 61.8757 94.0289 62.0808 94.2056 62.5007C94.2214 62.5381 94.2338 62.5767 94.2426 62.616C94.2573 62.6819 94.262 62.7498 94.2562 62.8174C94.2516 62.8721 94.2402 62.9258 94.2225 62.9773C94.2052 63.0276 94.1819 63.0757 94.153 63.1208C94.0942 63.2119 94.0142 63.2874 93.9197 63.3406C93.8251 63.3938 93.719 63.4231 93.6106 63.4258L89.8906 63.5308C89.704 63.5374 89.5956 63.6326 89.5656 63.8157C88.3689 71.7424 83.8073 76.3174 75.8806 77.5408C75.7906 77.5537 75.7296 77.5913 75.6974 77.6538C75.6796 77.6885 75.6707 77.7307 75.6707 77.7808L75.6206 81.7158C75.6173 81.8958 75.5339 82.0225 75.3706 82.0957C74.5706 82.4409 74.1406 82.0408 74.1256 81.2507C74.1089 80.1108 74.0873 78.9707 74.0605 77.8308C74.0573 77.6541 73.9673 77.5525 73.7906 77.5259ZM65.9575 82.0569C66.8745 82.842 67.5514 83.7974 67.9496 84.8682C68.7539 87.0308 68.3743 89.533 66.8944 91.824C65.4144 94.1152 62.9554 96.0076 60.0582 97.0852C58.6237 97.6187 57.1246 97.936 55.647 98.019C54.1692 98.1023 52.7415 97.9495 51.4456 97.5696C50.1495 97.1895 49.0106 96.5898 48.0936 95.8047C47.1768 95.0195 46.4999 94.0642 46.1016 92.9934C45.2974 90.8308 45.6769 88.3286 47.1567 86.0376C48.6367 83.7463 51.0958 81.854 53.993 80.7764C55.4276 80.2429 56.9265 79.9255 58.4043 79.8425C59.8821 79.7593 61.3097 79.9121 62.6057 80.292C63.9016 80.6721 65.0406 81.2717 65.9575 82.0569ZM102.536 86.0361C104.015 88.3271 104.394 90.8291 103.59 92.9917C103.192 94.0625 102.515 95.0178 101.598 95.803C100.682 96.5884 99.543 97.1882 98.2474 97.5684C96.9518 97.9485 95.5247 98.1013 94.0475 98.0186C92.5703 97.9355 91.0719 97.6184 89.6379 97.0852C86.7421 96.0081 84.2842 94.1162 82.8051 91.8254C81.326 89.5344 80.947 87.0327 81.7512 84.8699C82.1495 83.7991 82.8263 82.8438 83.7429 82.0586C84.6597 81.2732 85.7982 80.6733 87.0938 80.2932C88.3894 79.9131 89.8165 79.7603 91.2937 79.843C92.7709 79.926 94.2693 80.2432 95.7032 80.7764C98.5991 81.8535 101.057 83.7454 102.536 86.0361ZM75.3062 109.54C75.218 109.378 75.1345 109.226 75.0557 109.086C74.9456 108.893 74.8323 108.889 74.7156 109.076C74.5724 109.301 74.4221 109.559 74.262 109.834L74.2583 109.84L74.2506 109.854C73.3011 111.486 72.0173 113.693 69.9156 113.156C66.4506 112.271 68.6356 105.396 69.6556 103.241C71.0023 100.411 72.1689 97.5059 73.1556 94.5259C73.4022 93.7825 73.8323 93.1909 74.4456 92.7507C74.486 92.7217 74.5278 92.6985 74.5712 92.6809C74.6185 92.6614 74.6677 92.6487 74.7186 92.6428C74.7709 92.6367 74.8248 92.6377 74.8806 92.6458C75.5306 92.7458 75.9373 93.0308 76.1006 93.5007C77.2672 96.8508 78.5973 100.136 80.0906 103.356C81.0906 105.511 83.1606 112.041 79.9255 113.116C77.6755 113.869 76.2296 111.227 75.3062 109.54Z" fill="white"/>
<path fill-rule="evenodd" clip-rule="evenodd" d="M0 0V156.211H27.6622L74.043 198L121.232 156.395H149V0H0ZM74.043 10.0134H10.0229V146.197H31.4729L74.7039 184.589L117.406 146.37H138.939V10.0254H74.043V10.0134Z" fill="white"/>
</svg>
