<svg width="149" height="198" viewBox="0 0 149 198" fill="none" xmlns="http://www.w3.org/2000/svg">
<path fill-rule="evenodd" clip-rule="evenodd" d="M80.3692 57.7692C81.3942 58.0767 81.9758 59.1568 81.6683 60.1817L70.0433 98.9317C69.7358 99.9567 68.6557 100.538 67.6308 100.231C66.6058 99.9233 66.0242 98.8432 66.3317 97.8183L77.9567 59.0683C78.2642 58.0433 79.3443 57.4617 80.3692 57.7692ZM63.8331 64.1617C64.5378 64.9669 64.4561 66.191 63.6509 66.8956L49.8173 79L63.6509 91.1044C64.4561 91.809 64.5378 93.0331 63.8331 93.8384C63.1285 94.6437 61.9044 94.7253 61.0991 94.0206L45.5991 80.4581C45.1787 80.0902 44.9375 79.5587 44.9375 79C44.9375 78.4413 45.1787 77.9098 45.5991 77.5419L61.0991 63.9794C61.9044 63.2748 63.1285 63.3564 63.8331 64.1617ZM84.1669 64.1617C84.8715 63.3564 86.0956 63.2748 86.9009 63.9794L102.401 77.5419C102.821 77.9098 103.062 78.4413 103.062 79C103.062 79.5587 102.821 80.0902 102.401 80.4581L86.9009 94.0206C86.0956 94.7253 84.8715 94.6437 84.1669 93.8384C83.4622 93.0331 83.5439 91.809 84.3491 91.1044L98.1827 79L84.3491 66.8956C83.5439 66.191 83.4622 64.9669 84.1669 64.1617Z" fill="black"/>
<path fill-rule="evenodd" clip-rule="evenodd" d="M0 0H74.5V10H10V146H31.401L77.8218 187.263L71.1782 194.737L27.599 156H0V0Z" fill="black"/>
<path fill-rule="evenodd" clip-rule="evenodd" d="M148.5 0H74V10H138.5V146H117.099L67 191L74 197.5L120.901 156H148.5V0Z" fill="black"/>
</svg>
