<svg width="149" height="198" viewBox="0 0 149 198" fill="none" xmlns="http://www.w3.org/2000/svg">
<path fill-rule="evenodd" clip-rule="evenodd" d="M48.8125 63.5C48.8125 62.4299 49.6799 61.5625 50.75 61.5625H79.8125C80.8826 61.5625 81.75 62.4299 81.75 63.5C81.75 64.5701 80.8826 65.4375 79.8125 65.4375H50.75C49.6799 65.4375 48.8125 64.5701 48.8125 63.5ZM85.625 63.5C85.625 62.4299 86.4924 61.5625 87.5625 61.5625H97.25C98.3201 61.5625 99.1875 62.4299 99.1875 63.5C99.1875 64.5701 98.3201 65.4375 97.25 65.4375H87.5625C86.4924 65.4375 85.625 64.5701 85.625 63.5ZM48.8125 79C48.8125 77.9299 49.6799 77.0625 50.75 77.0625H60.4375C61.5076 77.0625 62.375 77.9299 62.375 79C62.375 80.0701 61.5076 80.9375 60.4375 80.9375H50.75C49.6799 80.9375 48.8125 80.0701 48.8125 79ZM66.25 79C66.25 77.9299 67.1174 77.0625 68.1875 77.0625H97.25C98.3201 77.0625 99.1875 77.9299 99.1875 79C99.1875 80.0701 98.3201 80.9375 97.25 80.9375H68.1875C67.1174 80.9375 66.25 80.0701 66.25 79ZM48.8125 94.5C48.8125 93.4299 49.6799 92.5625 50.75 92.5625H79.8125C80.8826 92.5625 81.75 93.4299 81.75 94.5C81.75 95.5701 80.8826 96.4375 79.8125 96.4375H50.75C49.6799 96.4375 48.8125 95.5701 48.8125 94.5ZM85.625 94.5C85.625 93.4299 86.4924 92.5625 87.5625 92.5625H97.25C98.3201 92.5625 99.1875 93.4299 99.1875 94.5C99.1875 95.5701 98.3201 96.4375 97.25 96.4375H87.5625C86.4924 96.4375 85.625 95.5701 85.625 94.5Z" fill="black"/>
<path fill-rule="evenodd" clip-rule="evenodd" d="M83.6875 61.5625C82.6174 61.5625 81.75 62.4299 81.75 63.5C81.75 64.5701 82.6174 65.4375 83.6875 65.4375C84.7576 65.4375 85.625 64.5701 85.625 63.5C85.625 62.4299 84.7576 61.5625 83.6875 61.5625ZM77.875 63.5C77.875 60.2898 80.4773 57.6875 83.6875 57.6875C86.8977 57.6875 89.5 60.2898 89.5 63.5C89.5 66.7102 86.8977 69.3125 83.6875 69.3125C80.4773 69.3125 77.875 66.7102 77.875 63.5Z" fill="black"/>
<path fill-rule="evenodd" clip-rule="evenodd" d="M64.3125 77.0625C63.2424 77.0625 62.375 77.9299 62.375 79C62.375 80.0701 63.2424 80.9375 64.3125 80.9375C65.3826 80.9375 66.25 80.0701 66.25 79C66.25 77.9299 65.3826 77.0625 64.3125 77.0625ZM58.5 79C58.5 75.7898 61.1023 73.1875 64.3125 73.1875C67.5227 73.1875 70.125 75.7898 70.125 79C70.125 82.2102 67.5227 84.8125 64.3125 84.8125C61.1023 84.8125 58.5 82.2102 58.5 79Z" fill="black"/>
<path fill-rule="evenodd" clip-rule="evenodd" d="M83.6875 92.5625C82.6174 92.5625 81.75 93.4299 81.75 94.5C81.75 95.5701 82.6174 96.4375 83.6875 96.4375C84.7576 96.4375 85.625 95.5701 85.625 94.5C85.625 93.4299 84.7576 92.5625 83.6875 92.5625ZM77.875 94.5C77.875 91.2898 80.4773 88.6875 83.6875 88.6875C86.8977 88.6875 89.5 91.2898 89.5 94.5C89.5 97.7102 86.8977 100.312 83.6875 100.312C80.4773 100.312 77.875 97.7102 77.875 94.5Z" fill="black"/>
<path fill-rule="evenodd" clip-rule="evenodd" d="M0 0H74.5V10H10V146H31.401L77.8218 187.263L71.1782 194.737L27.599 156H0V0Z" fill="black"/>
<path fill-rule="evenodd" clip-rule="evenodd" d="M148.5 0H74V10H138.5V146H117.099L67 191L74 197.5L120.901 156H148.5V0Z" fill="black"/>
</svg>
