<svg width="149" height="198" viewBox="0 0 149 198" fill="none" xmlns="http://www.w3.org/2000/svg">
<path fill-rule="evenodd" clip-rule="evenodd" d="M0 0H74.5V10H10V146H31.401L77.8218 187.263L71.1782 194.737L27.599 156H0V0Z" fill="black"/>
<path fill-rule="evenodd" clip-rule="evenodd" d="M148.5 0H74V10H138.5V146H117.099L67 191L74 197.5L120.901 156H148.5V0Z" fill="black"/>
<path fill-rule="evenodd" clip-rule="evenodd" d="M49.4939 68.6068C56.2387 62.5899 64.9613 59.2646 73.9998 59.2646C83.0383 59.2646 91.7609 62.5899 98.5057 68.6068C99.3042 69.3191 99.374 70.5439 98.6617 71.3424C97.9494 72.1409 96.7246 72.2107 95.9261 71.4984C89.8913 66.1149 82.0869 63.1396 73.9998 63.1396C65.9127 63.1396 58.1083 66.1149 52.0735 71.4984C51.275 72.2107 50.0502 72.1409 49.3379 71.3424C48.6256 70.5439 48.6954 69.3191 49.4939 68.6068ZM56.031 76.8027C60.9045 72.2456 67.3275 69.7104 73.9998 69.7104C80.6721 69.7104 87.0951 72.2456 91.9687 76.8027C92.7502 77.5336 92.7914 78.7596 92.0605 79.5412C91.3297 80.3228 90.1036 80.364 89.322 79.6331C85.1663 75.7472 79.6893 73.5854 73.9998 73.5854C68.3103 73.5854 62.8333 75.7472 58.6776 79.6331C57.896 80.364 56.6699 80.3228 55.9391 79.5412C55.2082 78.7596 55.2494 77.5336 56.031 76.8027ZM63.4623 84.1626C66.366 81.5816 70.116 80.1559 74.001 80.1559C77.886 80.1559 81.636 81.5816 84.5398 84.1626C85.3395 84.8734 85.4116 86.0981 84.7007 86.8979C83.9898 87.6977 82.7652 87.7697 81.9654 87.0588C79.771 85.1083 76.937 84.0309 74.001 84.0309C71.065 84.0309 68.2311 85.1083 66.0366 87.0588C65.2368 87.7697 64.0122 87.6977 63.3013 86.8979C62.5904 86.0981 62.6625 84.8734 63.4623 84.1626Z" fill="black"/>
<path d="M74 98.1816C73.2336 98.1816 72.4844 97.9544 71.8472 97.5286C71.2099 97.1028 70.7133 96.4976 70.42 95.7895C70.1267 95.0815 70.0499 94.3023 70.1995 93.5507C70.349 92.799 70.718 92.1085 71.26 91.5666C71.8019 91.0247 72.4924 90.6556 73.244 90.5061C73.9957 90.3566 74.7748 90.4333 75.4829 90.7266C76.191 91.0199 76.7962 91.5166 77.2219 92.1538C77.6477 92.791 77.875 93.5402 77.875 94.3066C77.875 95.3344 77.4667 96.32 76.74 97.0467C76.0133 97.7734 75.0277 98.1816 74 98.1816Z" fill="black"/>
</svg>
