<svg width="149" height="198" viewBox="0 0 149 198" fill="none" xmlns="http://www.w3.org/2000/svg">
<path fill-rule="evenodd" clip-rule="evenodd" d="M0 0H74.5V10H10V146H31.401L77.8218 187.263L71.1782 194.737L27.599 156H0V0Z" fill="black"/>
<path fill-rule="evenodd" clip-rule="evenodd" d="M148.5 0H74V10H138.5V146H117.099L67 191L74 197.5L120.901 156H148.5V0Z" fill="black"/>
<rect x="7" y="8" width="137" height="141" fill="black"/>
<path d="M30.5 153L73.5 187L113.5 153L144 149H7L30.5 153Z" fill="black"/>
<path fill-rule="evenodd" clip-rule="evenodd" d="M49.494 68.6067C56.2388 62.5898 64.9614 59.2645 73.9999 59.2645C83.0384 59.2645 91.761 62.5898 98.5058 68.6067C99.3043 69.319 99.3742 70.5437 98.6618 71.3422C97.9495 72.1407 96.7247 72.2106 95.9262 71.4983C89.8915 66.1147 82.087 63.1395 73.9999 63.1395C65.9128 63.1395 58.1084 66.1147 52.0736 71.4983C51.2751 72.2106 50.0504 72.1407 49.338 71.3422C48.6257 70.5437 48.6956 69.319 49.494 68.6067ZM56.0311 76.8026C60.9046 72.2455 67.3277 69.7103 73.9999 69.7103C80.6722 69.7103 87.0952 72.2455 91.9688 76.8026C92.7504 77.5335 92.7915 78.7595 92.0607 79.5411C91.3298 80.3227 90.1038 80.3638 89.3222 79.633C85.1664 75.7471 79.6894 73.5853 73.9999 73.5853C68.3104 73.5853 62.8334 75.7471 58.6777 79.633C57.8961 80.3638 56.67 80.3227 55.9392 79.5411C55.2083 78.7595 55.2495 77.5335 56.0311 76.8026ZM63.4624 84.1625C66.3662 81.5814 70.1161 80.1558 74.0011 80.1558C77.8862 80.1558 81.6361 81.5814 84.5399 84.1625C85.3397 84.8733 85.4117 86.098 84.7008 86.8978C83.9899 87.6975 82.7653 87.7696 81.9655 87.0587C79.7711 85.1082 76.9371 84.0308 74.0011 84.0308C71.0651 84.0308 68.2312 85.1082 66.0367 87.0587C65.237 87.7696 64.0123 87.6975 63.3014 86.8978C62.5906 86.098 62.6626 84.8733 63.4624 84.1625Z" fill="white"/>
<path d="M74 98.1817C73.2336 98.1817 72.4844 97.9545 71.8472 97.5287C71.2099 97.1029 70.7133 96.4977 70.42 95.7896C70.1267 95.0816 70.0499 94.3025 70.1995 93.5508C70.349 92.7991 70.718 92.1086 71.26 91.5667C71.8019 91.0248 72.4924 90.6557 73.244 90.5062C73.9957 90.3567 74.7748 90.4334 75.4829 90.7267C76.191 91.02 76.7962 91.5167 77.2219 92.1539C77.6477 92.7912 77.875 93.5403 77.875 94.3067C77.875 95.3345 77.4667 96.3201 76.74 97.0468C76.0133 97.7735 75.0277 98.1817 74 98.1817Z" fill="white"/>
</svg>
